<?xml version="1.0" encoding="UTF-8" standalone="no"?>
<svg
   xmlns:dc="http://purl.org/dc/elements/1.1/"
   xmlns:cc="http://creativecommons.org/ns#"
   xmlns:rdf="http://www.w3.org/1999/02/22-rdf-syntax-ns#"
   xmlns:svg="http://www.w3.org/2000/svg"
   xmlns="http://www.w3.org/2000/svg"
   xmlns:sodipodi="http://sodipodi.sourceforge.net/DTD/sodipodi-0.dtd"
   xmlns:inkscape="http://www.inkscape.org/namespaces/inkscape"
   width="480"
   height="480"
   viewBox="0 0 127 127"
   version="1.1"
   id="svg917"
   inkscape:version="1.0.1 (3bc2e813f5, 2020-09-07)"
   sodipodi:docname="desert_objects.svg">
  <defs
     id="defs911" />
  <sodipodi:namedview
     id="base"
     pagecolor="#ffffff"
     bordercolor="#666666"
     borderopacity="1.0"
     inkscape:pageopacity="0.0"
     inkscape:pageshadow="2"
     inkscape:zoom="0.49497475"
     inkscape:cx="125.6879"
     inkscape:cy="436.51085"
     inkscape:document-units="mm"
     inkscape:current-layer="layer1"
     inkscape:document-rotation="0"
     showgrid="true"
     units="px"
     objecttolerance="10000"
     guidetolerance="10000"
     inkscape:pagecheckerboard="true"
     inkscape:window-width="2400"
     inkscape:window-height="1272"
     inkscape:window-x="4792"
     inkscape:window-y="-8"
     inkscape:window-maximized="1"
     inkscape:object-paths="true"
     inkscape:snap-intersection-paths="false"
     inkscape:snap-smooth-nodes="true">
    <inkscape:grid
       type="xygrid"
       id="grid919"
       empspacing="8"
       dotted="false" />
  </sodipodi:namedview>
  <metadata
     id="metadata914">
    <rdf:RDF>
      <cc:Work
         rdf:about="">
        <dc:format>image/svg+xml</dc:format>
        <dc:type
           rdf:resource="http://purl.org/dc/dcmitype/StillImage" />
        <dc:title></dc:title>
      </cc:Work>
    </rdf:RDF>
  </metadata>
  <g
     inkscape:label="Layer 1"
     inkscape:groupmode="layer"
     id="layer1">
    <rect
       style="fill:#d38d5f;fill-opacity:1;stroke-width:1.5875"
       id="rect2899"
       width="76.199966"
       height="76.199966"
       x="-338.66663"
       y="-152.39996"
       inkscape:export-filename="C:\Users\edhoc\Documents\Programming\td_game\client\img\map\land_1.png"
       inkscape:export-xdpi="9.6000023"
       inkscape:export-ydpi="9.6000023" />
    <path
       style="fill:#cf8a5d;fill-opacity:1;stroke:none;stroke-width:2.67269"
       d="m -372.53333,16.933333 c -14.01612,-3.61908 -24.29065,-13.7219597 -27.01106,-26.55978 -0.96443,-4.55118 -0.96443,-6.95854 0,-11.50974 3.45699,-16.31384 18.69817,-27.65382 37.1673,-27.65382 18.42426,0 33.78406,11.47584 37.20352,27.79603 3.45483,16.48897 -8.53152,33.16909 -27.26642,37.94376 -5.64499,1.43867 -14.48597,1.43143 -20.09334,-0.0164 z"
       id="path1989"
       inkscape:export-filename="C:\Users\edhoc\Documents\Programming\td_game\client\img\map\features\round_81.png"
       inkscape:export-xdpi="9.6000023"
       inkscape:export-ydpi="9.6000023" />
    <path
       style="fill:#d18b5e;fill-opacity:1;stroke:none;stroke-width:2.67269"
       d="m -269.95022,16.639533 c -7.29859,-1.57567 -13.67829,-6.136979 -14.4531,-10.3335891 -0.75718,-4.1010699 2.24403,-8.5449 7.61071,-11.26908 5.01258,-2.54442 15.75335,-3.3562703 21.54222,-1.62827 12.8886,3.84728 16.39081,13.15627 7.30216,19.4094291 -3.77614,2.59805 -8.45757,3.92502 -14.51844,4.11531 -2.93997,0.0923 -6.30756,-0.0399 -7.48355,-0.2938 z"
       id="path1995"
       inkscape:export-filename="C:\Users\edhoc\Documents\Programming\td_game\client\img\map\features\small_82.png"
       inkscape:export-xdpi="9.6000023"
       inkscape:export-ydpi="9.6000023" />
    <path
       style="fill:#cf8a5d;fill-opacity:1;stroke:none;stroke-width:3.11403"
       d="m -277.70463,73.309191 c -6.8847,-3.346999 -10.21025,-10.139418 -9.05545,-18.495717 0.48994,-3.545306 3.61292,-8.102768 7.15465,-10.441019 2.744,-1.811547 3.63813,-2.021813 8.6721,-2.039122 4.77489,-0.01656 6.02971,0.236657 8.40672,1.6956 3.46518,2.126804 6.83278,6.967554 7.62474,10.960177 1.31586,6.633833 -1.96249,14.052546 -7.73931,17.513658 -3.77151,2.259622 -11.2506,2.660022 -15.06345,0.806423 z"
       id="path2005"
       inkscape:export-filename="C:\Users\edhoc\Documents\Programming\td_game\client\img\map\features\small_81.png"
       inkscape:export-xdpi="9.6000023"
       inkscape:export-ydpi="9.6000023" />
    <path
       style="fill:#d18b5e;fill-opacity:1;stroke:none;stroke-width:2.67269"
       d="m -373.32031,99.091777 c -24.1722,-2.79749 -42.11318,-19.72694 -39.05293,-36.85106 2.35306,-13.16694 14.15042,-23.8365 31.37324,-28.37405 4.13224,-1.08871 5.97036,-1.24746 14.3605,-1.24039 10.47244,0.009 15.20672,0.80663 22.29931,3.75787 11.16395,4.64537 20.11156,13.91328 22.67536,23.48701 2.67752,9.99845 -1.62572,20.867 -11.26966,28.46346 -7.20095,5.67213 -17.70521,9.71264 -28.09451,10.80666 -5.73091,0.60349 -6.68201,0.59966 -12.29131,-0.0495 z"
       id="path2007-4"
       inkscape:export-filename="C:\Users\edhoc\Documents\Programming\td_game\client\img\map\features\wide_82.png"
       inkscape:export-xdpi="9.6000023"
       inkscape:export-ydpi="9.6000023" />
    <path
       style="fill:#d18b5e;fill-opacity:1;stroke:none;stroke-width:2.03934"
       d="m -357.12945,169.29789 c -19.65845,-2.00271 -34.24925,-14.12245 -31.76046,-26.38156 1.91367,-9.42618 11.50808,-17.06448 25.51482,-20.3129 3.36062,-0.77941 4.85549,-0.89305 11.67892,-0.88799 8.51689,0.006 12.36713,0.57746 18.1353,2.69025 9.07926,3.3256 16.35606,9.96047 18.44112,16.81428 2.17754,7.15786 -1.32216,14.93863 -9.16525,20.37691 -5.85629,4.06065 -14.39906,6.95324 -22.84833,7.73645 -4.66075,0.43203 -5.43425,0.42929 -9.99612,-0.0354 z"
       id="path2007-4-0"
       inkscape:export-filename="C:\Users\edhoc\Documents\Programming\td_game\client\img\map\features\thin_82.png"
       inkscape:export-xdpi="9.6000023"
       inkscape:export-ydpi="9.6000023" />
    <path
       style="fill:#d18b5e;fill-opacity:1;stroke:none;stroke-width:2.15558"
       d="m -269.46944,159.20372 c -15.16289,-2.9009 -26.41701,-20.45613 -24.49735,-38.21325 1.47604,-13.65366 8.87635,-24.717604 19.67999,-29.422884 2.5921,-1.12895 3.74512,-1.29357 9.00814,-1.28624 6.56922,0.009 9.53896,0.83645 13.98805,3.89678 7.00299,4.81708 12.6157,14.427564 14.22394,24.355204 1.67956,10.36803 -1.0198,21.63833 -7.0693,29.5156 -4.51706,5.8818 -11.10624,10.07166 -17.6233,11.20612 -3.59492,0.62581 -4.19153,0.62183 -7.71017,-0.0513 z"
       id="path2007-4-4"
       inkscape:export-filename="C:\Users\edhoc\Documents\Programming\td_game\client\img\map\features\tall_82.png"
       inkscape:export-xdpi="9.6000023"
       inkscape:export-ydpi="9.6000023" />
    <path
       sodipodi:type="star"
       style="fill:#d18b5e;fill-opacity:1;stroke:none;stroke-width:1.32292"
       id="path2163"
       sodipodi:sides="6"
       sodipodi:cx="-93.133331"
       sodipodi:cy="-93.133331"
       sodipodi:r1="54.21312"
       sodipodi:r2="27.10656"
       sodipodi:arg1="0.89605538"
       sodipodi:arg2="1.4196542"
       inkscape:flatsided="false"
       inkscape:rounded="0"
       inkscape:randomized="0.5"
       d="m -80.768356,-36.967139 8.994354,-50.897439 -56.237908,59.850795 -2.26084,-33.446219 -27.51487,-9.688372 42.95879,-30.759166 -26.32616,-25.36083 31.82431,2.1374 55.40096,-21.6752 2.260845,33.44622 28.351819,25.725893 -18.5523,5.823244 z"
       inkscape:transform-center-x="-0.11999236"
       inkscape:transform-center-y="0.11178433"
       inkscape:export-filename="C:\Users\edhoc\Documents\Programming\td_game\client\img\map\features\spikey6.png"
       inkscape:export-xdpi="9.6000023"
       inkscape:export-ydpi="9.6000023" />
    <path
       sodipodi:type="star"
       style="fill:#cf895d;fill-opacity:1;stroke:none;stroke-width:1.32292"
       id="path2165"
       sodipodi:sides="6"
       sodipodi:cx="50.799999"
       sodipodi:cy="-93.133331"
       sodipodi:r1="59.868374"
       sodipodi:r2="29.934185"
       sodipodi:arg1="0.78539816"
       sodipodi:arg2="1.3089969"
       inkscape:flatsided="false"
       inkscape:rounded="0"
       inkscape:randomized="0.5"
       d="m 105.78693,-37.786034 -18.762805,-32.6981 -58.33719,32.328935 -3.154488,-40.747075 -55.953168,-14.492678 73.724652,-25.865588 -21.658281,4.31569 48.941769,-33.70327 -13.690984,-4.18482 45.003705,19.13596 19.14315,13.59916 -33.626521,52.935152 z"
       inkscape:transform-center-x="3.7521703"
       inkscape:transform-center-y="-12.94593"
       inkscape:export-filename="C:\Users\edhoc\Documents\Programming\td_game\client\img\map\features\spikey5.png"
       inkscape:export-xdpi="9.6000023"
       inkscape:export-ydpi="9.6000023" />
    <path
       sodipodi:type="star"
       style="fill:#cf895d;fill-opacity:1;stroke:none;stroke-width:1.32292"
       id="path2167"
       sodipodi:sides="6"
       sodipodi:cx="160.86665"
       sodipodi:cy="-84.666664"
       sodipodi:r1="61.054001"
       sodipodi:r2="30.527"
       sodipodi:arg1="0.98279372"
       sodipodi:arg2="1.5063925"
       inkscape:flatsided="false"
       inkscape:rounded="0"
       inkscape:randomized="0.5"
       d="m 216.54279,-60.95433 -36.90823,11.836505 -72.76346,36.427769 14.76728,-31.619758 -13.30659,-17.273218 -0.3831,-25.996117 -6.15564,-49.761371 77.12161,16.82684 38.19028,-26.79179 -41.31094,16.70944 74.3596,71.567021 -60.60708,-23.023343 z"
       inkscape:transform-center-x="3.3947664"
       inkscape:transform-center-y="2.0971789"
       inkscape:export-filename="C:\Users\edhoc\Documents\Programming\td_game\client\img\map\features\spikey4.png"
       inkscape:export-xdpi="9.6000023"
       inkscape:export-ydpi="9.6000023" />
    <path
       sodipodi:type="star"
       style="fill:#d18b5e;fill-opacity:1;stroke:none;stroke-width:1.32292"
       id="path2169"
       sodipodi:sides="6"
       sodipodi:cx="245.53333"
       sodipodi:cy="33.866665"
       sodipodi:r1="34.908958"
       sodipodi:r2="17.454479"
       sodipodi:arg1="1.3258177"
       sodipodi:arg2="1.8494164"
       inkscape:flatsided="false"
       inkscape:rounded="0"
       inkscape:randomized="0.5"
       d="m 259.2251,72.038429 -2.33838,-13.606159 -44.66304,1.303075 30.50645,-17.125454 -31.43209,-7.394889 32.8089,-6.535019 -14.58713,-21.2433699 30.15646,26.1515659 17.41982,-35.4148196 -2.68837,29.6708606 -1.59496,23.507576 2.10007,6.535019 z"
       inkscape:transform-center-x="7.6282029"
       inkscape:transform-center-y="-14.004909" />
    <path
       sodipodi:type="star"
       style="fill:#d18b5e;fill-opacity:1;stroke:none;stroke-width:1.32292"
       id="path2171"
       sodipodi:sides="6"
       sodipodi:cx="169.33333"
       sodipodi:cy="33.866665"
       sodipodi:r1="49.368725"
       sodipodi:r2="24.684362"
       sodipodi:arg1="2.1112158"
       sodipodi:arg2="2.6348146"
       inkscape:flatsided="false"
       inkscape:rounded="0"
       inkscape:randomized="0.5"
       d="m 125.51701,64.307249 -2.10665,-32.56527 -11.91457,1.047672 42.10376,-18.974693 12.22524,-26.454919 25.56246,-1.320649 20.66699,-8.857279 -13.93227,25.2432625 8.44015,56.0336795 -21.72665,-7.650459 28.91232,38.383051 -63.98777,-32.924548 z"
       inkscape:transform-center-x="10.427948"
       inkscape:transform-center-y="5.7724304" />
    <path
       sodipodi:type="star"
       style="fill:#cf895d;fill-opacity:1;stroke:none;stroke-width:1.32292"
       id="path2173"
       sodipodi:sides="6"
       sodipodi:cx="313.26666"
       sodipodi:cy="-42.333332"
       sodipodi:r1="42.333332"
       sodipodi:r2="21.166666"
       sodipodi:arg1="0.92729522"
       sodipodi:arg2="1.450894"
       inkscape:flatsided="false"
       inkscape:rounded="0"
       inkscape:randomized="0.5"
       d="M 335.26194,-7.7554438 308.9186,-18.587259 292.44094,16.60296 l 18.77549,-65.426364 -50.50911,5.288244 45.81595,3.919087 -11.45214,-17.235899 28.62413,-21.336714 -4.16496,-14.390389 22.86004,44.558709 27.23404,17.573409 -45.11883,12.261217 z"
       inkscape:transform-center-x="3.761774"
       inkscape:transform-center-y="0.14932754"
       inkscape:export-filename="C:\Users\edhoc\Documents\Programming\td_game\client\img\map\features\spikey3.png"
       inkscape:export-xdpi="9.6000023"
       inkscape:export-ydpi="9.6000023" />
    <path
       style="fill:#d18b5e;fill-opacity:1;stroke:none;stroke-width:10.1015"
       d="m 683.55068,271.77798 c -63.65055,-32.73654 -116.79395,-59.521 -118.09645,-59.521 -1.30251,0 -21.74477,6.45855 -45.42726,14.35231 -23.68248,7.89378 -43.4383,13.97308 -43.90182,13.50956 -0.46352,-0.46352 -2.21486,-22.1501 -3.89187,-48.19242 -1.67701,-26.04232 -3.59405,-53.10669 -4.2601,-60.14305 l -1.21099,-12.7934 -17.49903,1.41993 c -9.62447,0.78097 -17.00969,0.89686 -16.41159,0.25755 0.5981,-0.63932 34.23618,-16.0711 74.75129,-34.292845 L 581.2667,53.244161 604.05552,4.0640868 c 12.53386,-27.0490408 23.17639,-49.5676378 23.65008,-50.0413248 0.47369,-0.473689 22.4931,-2.027008 48.932,-3.45182 l 48.07076,-2.590571 36.05319,-15.487899 c 19.82927,-8.518344 36.2985,-15.195844 36.59829,-14.838889 0.29979,0.356955 -10.74762,20.999427 -24.54978,45.872159 L 747.71521,8.7488934 763.33716,112.50363 c 8.59207,57.06509 15.13495,104.24172 14.53973,104.83695 -0.59522,0.59522 -18.04803,-4.92026 -38.78402,-12.25661 -20.73599,-7.33635 -38.4752,-13.04208 -39.42048,-12.67935 -0.94528,0.3627 21.42493,31.41687 49.71159,69.00925 28.28663,37.59239 51.08481,68.69525 50.6626,69.11745 -0.4222,0.4222 -52.84536,-26.0168 -116.4959,-58.75334 z"
       id="path2175"
       transform="scale(0.26458333)"
       inkscape:export-filename="C:\Users\edhoc\Documents\Programming\td_game\client\img\map\features\spikey1.png"
       inkscape:export-xdpi="9.6000023"
       inkscape:export-ydpi="9.6000023" />
    <path
       style="fill:#d18b5e;fill-opacity:1;stroke:none;stroke-width:10.1015"
       d="m 979.66188,264.24681 c -0.57008,-2.48197 -2.61388,-13.50637 -4.54176,-24.49867 l -3.50524,-19.98601 -43.65121,1.31524 c -24.00817,0.72337 -60.92482,1.84014 -82.03701,2.4817 -38.21061,1.16117 -38.35813,1.14907 -32.32488,-2.64948 3.3335,-2.09878 27.88021,-15.96793 54.54824,-30.82031 54.29055,-30.23637 50.52432,-27.98652 49.1499,-29.36094 -0.56156,-0.56155 -25.2198,-6.734 -54.79609,-13.71654 -29.57629,-6.98255 -54.24909,-13.16956 -54.82845,-13.74892 -0.57936,-0.57936 24.15464,-5.90273 54.96444,-11.82972 30.8098,-5.92699 57.16009,-11.366 58.5562,-12.0867 1.74377,-0.90017 -4.75846,-11.961598 -20.77161,-35.336118 -12.82049,-18.714171 -23.05413,-34.266952 -22.74142,-34.561739 0.3127,-0.294785 23.47929,19.374623 51.4813,43.709798 28.00202,24.335169 51.48215,44.245769 52.17808,44.245769 0.69593,0 15.24778,-28.410541 32.33743,-63.134535 17.0897,-34.723994 31.1077,-61.3162595 31.1513,-59.0939239 0.043,2.2223356 -2.1301,28.5873169 -4.8302,58.5888479 -2.7001,30.00153 -6.0126,71.906071 -7.3611,93.121201 -2.2021,34.64634 -2.1128,39.56744 0.877,48.34214 1.8308,5.37304 3.3287,10.76994 3.3287,11.99311 0,1.94863 -43.46338,42.41108 -52.68365,49.0461 -2.94789,2.12134 -3.61774,1.8206 -4.49997,-2.0203 z"
       id="path2177"
       transform="scale(0.26458333)"
       inkscape:export-filename="C:\Users\edhoc\Documents\Programming\td_game\client\img\map\features\spikey2.png"
       inkscape:export-xdpi="9.6000023"
       inkscape:export-ydpi="9.6000023" />
    <path
       sodipodi:type="star"
       style="fill:#cf895d;fill-opacity:1;stroke:none;stroke-width:1.32292"
       id="path2179"
       sodipodi:sides="6"
       sodipodi:cx="211.66666"
       sodipodi:cy="186.26666"
       sodipodi:r1="83.386993"
       sodipodi:r2="41.693497"
       sodipodi:arg1="1.9890207"
       sodipodi:arg2="2.5126194"
       inkscape:flatsided="false"
       inkscape:rounded="0"
       inkscape:randomized="0.5"
       d="m 215.8288,267.45831 -42.62274,-56.8225 -39.76176,-38.18192 6.6e-4,31.15023 28.33927,-87.44993 41.33606,63.30488 78.38174,-95.93141 -5.19571,76.91968 -1.58946,38.31553 -14.82044,40.39353 -16.72749,2.08565 -16.69475,-40.96321 z"
       inkscape:transform-center-x="-9.0530311"
       inkscape:transform-center-y="-33.906158"
       inkscape:export-filename="C:\Users\edhoc\Documents\Programming\td_game\client\img\map\features\spikey8.png"
       inkscape:export-xdpi="9.6000023"
       inkscape:export-ydpi="9.6000023" />
    <path
       sodipodi:type="star"
       style="fill:#d18a5e;fill-opacity:1;stroke:none;stroke-width:1.32292"
       id="path2181"
       sodipodi:sides="6"
       sodipodi:cx="-67.73333"
       sodipodi:cy="143.93333"
       sodipodi:r1="87.16967"
       sodipodi:r2="43.584835"
       sodipodi:arg1="0.5070985"
       sodipodi:arg2="1.0306973"
       inkscape:flatsided="false"
       inkscape:rounded="0"
       inkscape:randomized="0.5"
       d="m 29.312501,205.40173 -71.524635,9.88924 -19.781403,44.22917 5.939972,-85.08581 -59.876195,19.88054 -24.149,-66.38327 20.92971,-38.63262 53.816896,11.78552 2.943622,-82.396498 10.899211,45.735309 82.278982,56.893149 -80.725608,20.19204 z"
       inkscape:transform-center-x="22.349351"
       inkscape:transform-center-y="6.2497328"
       inkscape:export-filename="C:\Users\edhoc\Documents\Programming\td_game\client\img\map\features\spikey7.png"
       inkscape:export-xdpi="9.6000023"
       inkscape:export-ydpi="9.6000023" />
  </g>
</svg>
