<?xml version="1.0" encoding="UTF-8" standalone="no"?>
<svg
   xmlns:dc="http://purl.org/dc/elements/1.1/"
   xmlns:cc="http://creativecommons.org/ns#"
   xmlns:rdf="http://www.w3.org/1999/02/22-rdf-syntax-ns#"
   xmlns:svg="http://www.w3.org/2000/svg"
   xmlns="http://www.w3.org/2000/svg"
   xmlns:sodipodi="http://sodipodi.sourceforge.net/DTD/sodipodi-0.dtd"
   xmlns:inkscape="http://www.inkscape.org/namespaces/inkscape"
   width="480"
   height="480"
   viewBox="0 0 127 127"
   version="1.1"
   id="svg917"
   inkscape:version="1.0.1 (3bc2e813f5, 2020-09-07)"
   sodipodi:docname="sniper.svg"
   inkscape:export-filename="C:\Users\edhoc\Documents\Programming\td_game\client\assets\towers\4-sniper\sprites\sniper.png"
   inkscape:export-xdpi="19.200001"
   inkscape:export-ydpi="19.200001">
  <defs
     id="defs911" />
  <sodipodi:namedview
     id="base"
     pagecolor="#ffffff"
     bordercolor="#666666"
     borderopacity="1.0"
     inkscape:pageopacity="0.0"
     inkscape:pageshadow="2"
     inkscape:zoom="0.7"
     inkscape:cx="-28.378011"
     inkscape:cy="139.54563"
     inkscape:document-units="mm"
     inkscape:current-layer="layer1"
     inkscape:document-rotation="0"
     showgrid="true"
     units="px"
     objecttolerance="10000"
     guidetolerance="10000"
     inkscape:pagecheckerboard="true"
     inkscape:window-width="1920"
     inkscape:window-height="993"
     inkscape:window-x="-8"
     inkscape:window-y="585"
     inkscape:window-maximized="1"
     inkscape:snap-smooth-nodes="true">
    <inkscape:grid
       type="xygrid"
       id="grid919"
       empspacing="8"
       dotted="false" />
  </sodipodi:namedview>
  <metadata
     id="metadata914">
    <rdf:RDF>
      <cc:Work
         rdf:about="">
        <dc:format>image/svg+xml</dc:format>
        <dc:type
           rdf:resource="http://purl.org/dc/dcmitype/StillImage" />
        <dc:title></dc:title>
      </cc:Work>
    </rdf:RDF>
  </metadata>
  <g
     inkscape:label="Layer 1"
     inkscape:groupmode="layer"
     id="layer1">
    <circle
       style="fill:#6c5353;stroke-width:0.378347"
       id="path831"
       cx="-46.566666"
       cy="104.51041"
       r="19.84375" />
    <path
       id="rect835"
       style="fill:#483e37;stroke-width:0.56327"
       d="m 63.800007,52.949066 c 14.771306,6.330561 61.195373,6.330561 61.195373,6.330561 0.52756,4.220373 0.52756,4.484146 0,8.440746 0,0 -46.424067,0 -61.195374,6.330561 V 63.5 Z"
       sodipodi:nodetypes="cccccc" />
    <path
       id="rect835-7"
       style="fill:#6c5d53;stroke-width:0.465541"
       d="m 68.02038,55.743529 c 13.725552,4.653883 56.86295,4.653883 56.86295,4.653883 0.37584,3.102588 0.37584,3.102588 0,6.205177 0,0 -43.137398,0 -56.86295,4.653882 V 63.5 Z"
       sodipodi:nodetypes="cccccc" />
    <path
       id="rect835-7-0"
       style="fill:#917c6f;stroke-width:0.383934"
       d="m 68.02038,58.224533 c 13.725552,3.165281 56.86295,3.165281 56.86295,3.165281 0.37584,2.373959 -0.15171,2.110186 0,4.220373 0,0 -43.137398,0 -56.86295,3.16528 V 63.5 Z"
       sodipodi:nodetypes="cccccc" />
    <path
       id="rect835-7-0-1"
       style="fill:#ac9d93;stroke-width:0.290229"
       d="m 68.132426,60.485446 c 13.72555,1.808734 56.862954,1.808734 56.862954,1.808734 0,1.20582 0,1.20582 0,2.411641 0,0 -43.137403,0 -56.862954,1.808733 V 63.5 Z"
       sodipodi:nodetypes="cccccc" />
    <path
       id="rect835-2"
       style="fill:#000000;stroke-width:0.564999"
       d="m -77.258337,242.8875 c 0.52917,0 0.52917,2.91042 0.52917,4.23333 0,1.32292 0,4.23334 -0.52917,4.23334 -0.52916,0 -0.79375,-2.91042 -0.79375,-4.23334 0,-1.32291 0.26458,-4.23333 0.79375,-4.23333 z"
       sodipodi:nodetypes="zzzzz" />
    <path
       id="path901"
       style="fill:#000000;stroke-width:0.56327"
       d="m 68.02038,63.5 c 0,4.661697 2.110186,8.440747 3.16528,8.440747 C 66.43774,81.436586 57.910769,83.283001 53.249073,83.283001 43.925681,83.283 63.800007,72.823391 63.800007,63.5 c 0,-9.323391 -19.874325,-19.783 -10.550934,-19.783001 4.661696,0 13.452441,2.110187 17.936587,11.342254 -1.055094,0 -3.165281,3.77905 -3.16528,8.440747 z"
       sodipodi:nodetypes="scssscs" />
    <g
       id="g1955"
       transform="matrix(0.91706242,0,0,0.59629827,16.594022,1.5980564)">
      <g
         id="g3105"
         transform="matrix(10.70675,0,0,10.70675,-18.620165,34.268003)">
        <rect
           style="fill:#aa8800;fill-opacity:1;fill-rule:nonzero;stroke-width:0.330984;stroke-miterlimit:4;stroke-dasharray:none"
           id="rect2855"
           width="1.5875002"
           height="3.4395833"
           x="4.4979167"
           y="4.7624998" />
        <rect
           style="fill:#554400;fill-opacity:1;fill-rule:nonzero;stroke-width:0.364768;stroke-miterlimit:4;stroke-dasharray:none"
           id="rect2958-3"
           width="0.27116525"
           height="3.4240263"
           x="4.803391"
           y="3.5167115"
           transform="matrix(0.96571945,0.25958803,-0.07727272,0.99700999,0,0)" />
        <rect
           style="fill:#554400;fill-opacity:1;fill-rule:nonzero;stroke-width:0.364769;stroke-miterlimit:4;stroke-dasharray:none"
           id="rect2958"
           width="0.27116525"
           height="3.4240263"
           x="6.4136949"
           y="3.0974422"
           transform="matrix(0.96571945,0.25958803,-0.07727272,0.99700999,0,0)" />
        <rect
           style="fill:#554400;fill-opacity:1;fill-rule:nonzero;stroke-width:0.364769;stroke-miterlimit:4;stroke-dasharray:none"
           id="rect2954"
           width="0.27116525"
           height="3.4240265"
           x="5.3401589"
           y="3.3769543"
           transform="matrix(0.96571941,0.25958817,-0.07727275,0.99700999,0,0)" />
        <rect
           style="fill:#554400;fill-opacity:1;fill-rule:nonzero;stroke-width:0.364769;stroke-miterlimit:4;stroke-dasharray:none"
           id="rect2956"
           width="0.27116525"
           height="3.4240267"
           x="5.8769269"
           y="3.2371979"
           transform="matrix(0.96571942,0.25958812,-0.07727273,0.99700999,0,0)" />
      </g>
      <rect
         style="fill:#00020c;fill-opacity:0.399194;fill-rule:nonzero;stroke-width:1.91773;stroke-miterlimit:4;stroke-dasharray:none"
         id="rect3167"
         width="27.612341"
         height="7.9663348"
         x="23.862875"
         y="114.4268" />
      <rect
         style="fill:#00020c;fill-opacity:0.399194;fill-rule:nonzero;stroke-width:1.79446;stroke-miterlimit:4;stroke-dasharray:none"
         id="rect3167-6"
         width="33.993927"
         height="5.6656489"
         x="21.039421"
         y="116.42004" />
      <rect
         style="fill:#000b3c;fill-opacity:0.399194;fill-rule:nonzero;stroke-width:2.07898;stroke-miterlimit:4;stroke-dasharray:none"
         id="rect3167-9"
         width="33.993927"
         height="7.604795"
         x="21.039421"
         y="85.258881" />
      <rect
         style="fill:#000b3c;fill-opacity:0.399194;fill-rule:nonzero;stroke-width:1.26887;stroke-miterlimit:4;stroke-dasharray:none"
         id="rect3167-63"
         width="33.993927"
         height="2.8328249"
         x="21.039421"
         y="85.258881" />
    </g>
    <path
       id="rect838"
       style="fill:#483e37;stroke-width:0.45436"
       d="m 21.428115,50.8 c 1.23991,-1.905568 10.984409,2.110187 15.103564,2.110187 2.783982,0 8.238307,-2.544224 8.238307,-2.544224 l 10e-7,12.661118 -10e-7,12.661124 c 0,0 -5.454324,-1.676153 -8.238307,-1.676153 -4.119155,0 -13.730512,4.220375 -15.103564,2.110188 -1.37305,-2.110188 0,-8.816567 0,-13.095156 0,-4.278587 -1.37305,-10.116897 0,-12.227084 z"
       sodipodi:nodetypes="sscccssss" />
    <path
       id="rect838-8"
       style="fill:#6c5d53;stroke-width:0.407141"
       d="m 21.428115,53.30242 c 1.239909,-1.530092 10.984409,1.694394 15.103564,1.694394 2.783982,0 8.238307,-2.042908 8.238307,-2.042908 v 10.166359 10.166362 c 0,0 -5.454325,-1.34588 -8.238307,-1.34588 -4.119155,0 -13.730512,3.388788 -15.103564,1.694392 -1.373051,-1.694392 0,-7.07934 0,-10.514872 0,-3.435529 -1.373051,-8.123453 0,-9.817847 z"
       sodipodi:nodetypes="sscccssss" />
    <path
       id="rect838-8-0"
       style="fill:#917c6f;stroke-width:0.341854"
       d="m 21.428115,56.310583 c 1.239911,-1.078733 10.984411,1.19457 15.103566,1.19457 2.783981,0 8.238307,-1.440275 8.238307,-1.440275 v 7.167405 7.167406 c 0,0 -5.454326,-0.948861 -8.238307,-0.948861 -4.119155,0 -13.730513,2.389133 -15.103566,1.19457 -1.37305,-1.19457 0,-4.991022 0,-7.413114 0,-2.422091 -1.37305,-5.727131 0,-6.921701 z"
       sodipodi:nodetypes="sscccssss" />
    <path
       id="rect838-8-3"
       style="fill:#ac9d93;stroke-width:0.286832"
       d="m 21.428115,58.438649 c 1.239909,-0.759427 10.984409,0.840978 15.103564,0.840978 2.783982,0 8.238306,-1.013956 8.238306,-1.013956 v 5.045855 5.045855 c 0,0 -5.454325,-0.667999 -8.238306,-0.667999 -4.119155,0 -13.730512,1.681956 -15.103564,0.840978 -1.373051,-0.840978 0,-3.513681 0,-5.218834 0,-1.705155 -1.373051,-4.031899 0,-4.872877 z"
       sodipodi:nodetypes="sscccssss" />
    <path
       id="path901-9"
       style="fill:#483e37;stroke-width:0.631469"
       d="m -85.460417,234.95 -6.36557,-0.0311 c 0,0 -0.73927,-2.01453 -2.36568,-4.73137 -1.62641,-2.71684 -6.879173,-4.7625 -6.879173,-4.7625 0,-2.36568 0,-8.38885 0,-11.64167 5.226133,0 14.863363,1.32293 19.890443,11.6728 -5.07377,5.7897 -4.28002,4.26774 -4.28002,9.49387 z"
       sodipodi:nodetypes="csssccc" />
    <path
       id="path901-9-3"
       style="fill:#6c5d53;stroke-width:0.598233"
       d="m -86.254167,234.42083 -5.6652,0.52917 c 0,0 -1.10502,-2.43767 -2.64583,-5.01152 -1.54081,-2.57385 -6.505643,-4.51348 -6.505643,-4.51348 V 215.9 c 4.951073,0 13.758333,1.30736 18.520843,11.1125 -2.64584,4.7625 -2.91042,5.55625 -2.91042,7.9375 z"
       sodipodi:nodetypes="cssscccc" />
    <path
       id="path901-9-1"
       style="fill:#917c6f;stroke-width:0.593485"
       d="m -85.195837,236.5375 -7.18623,-1.03786 c 0,0 -0.69481,-1.89335 -2.22339,-4.44677 -1.52858,-2.55343 -6.465383,-4.56954 -6.465383,-4.56954 0,-2.22339 0,-5.4095 0,-8.46666 4.911783,0 12.737803,1.38517 17.462503,11.1125 -1.5875,4.49791 -2.38125,6.61458 -1.5875,7.40833 z"
       sodipodi:nodetypes="csssccc" />
    <path
       id="path901-9-3-5"
       style="fill:#ac9d93;stroke-width:0.56225"
       d="m -84.666667,237.06667 -7.79239,-0.26309 c 0,0 -1.03855,-2.29104 -2.48668,-4.71007 -1.44813,-2.41904 -6.125103,-4.28726 -6.125103,-4.28726 0,-2.10637 0,-4.77666 0,-7.67292 4.653263,0 12.192723,2.16173 16.668753,11.37709 -0.79375,2.11666 -0.52916,4.7625 -0.26458,5.55625 z"
       sodipodi:nodetypes="csssccc" />
    <path
       id="rect1042"
       style="fill:#483e37;stroke-width:0.564999"
       d="m -135.90108,182.05569 11.78379,-2.34773 v 0 l 0.65163,6.31648 v 0 l -11.7838,2.34773 v 0 z"
       sodipodi:nodetypes="cccccccc" />
    <path
       id="rect1044"
       style="fill:#6c5d53;stroke-width:0.564999"
       d="m -136.3355,177.84471 11.7838,-2.34774 v 0 l 0.86883,8.42197 v 0 l -11.7838,2.34773 v 0 z"
       sodipodi:nodetypes="cccccccc" />
    <path
       id="rect1046"
       style="fill:#917c6f;stroke-width:0.564999"
       d="m -136.5527,175.73921 11.78379,-2.34772 v 0 l 0.86883,8.42197 v 0 l -11.78379,2.34772 v 0 z"
       sodipodi:nodetypes="cccccccc" />
    <path
       id="rect1048"
       style="fill:#ac9d93;stroke-width:0.564999"
       d="m -136.5527,175.73921 11.78379,-2.34772 v 0 l 0.65162,6.31647 v 0 l -11.78379,2.34773 v 0 z"
       sodipodi:nodetypes="cccccccc" />
    <path
       id="path901-9-6"
       style="fill:#483e37;stroke-width:0.631468"
       d="m -120.68539,167.47203 -6.36557,0.0311 c 0,0 5.79594,3.18071 4.16953,5.89755 -1.62641,2.71685 -4.9874,3.65025 -4.9874,3.65025 l 5.02708,8.46666 5.90721,-8.02255 c -5.07377,-5.78971 -3.75085,-4.79691 -3.75085,-10.02304 z"
       sodipodi:nodetypes="csscccc" />
    <path
       id="path901-9-3-9"
       style="fill:#6c5d53;stroke-width:0.598234"
       d="m -121.47915,168.0012 -5.6652,-0.52917 c 0,0 5.4302,3.60385 3.88939,6.1777 -1.54081,2.57386 -4.61387,3.40123 -4.61387,3.40123 l 4.23333,7.14375 5.33136,-8.25601 c -2.64584,-4.7625 -2.38125,-6.08542 -2.38125,-8.46667 z"
       sodipodi:nodetypes="cssscccc" />
    <path
       id="path901-9-1-6"
       style="fill:#917c6f;stroke-width:0.593484"
       d="m -120.42081,165.88453 -5.29167,1.5875 c 0,0 3.94585,2.50989 2.41727,5.06331 -1.52858,2.55343 -4.57362,4.51562 -4.57362,4.51562 l 3.175,5.29166 5.33135,-8.52059 c -1.5875,-4.49792 -1.85208,-7.14375 -1.05833,-7.9375 z"
       sodipodi:nodetypes="csscccc" />
    <path
       id="path901-9-3-5-8"
       style="fill:#ac9d93;stroke-width:0.56225"
       d="m -119.89164,165.35536 h -5.82084 c 0,0 4.41855,3.28285 2.07698,6.13934 -1.78735,2.18041 -4.23333,5.55626 -4.23333,5.55626 l 2.11667,3.70416 5.59593,-9.31434 c -0.79375,-2.11667 0,-5.29167 0.26459,-6.08542 z"
       sodipodi:nodetypes="csscccc" />
    <path
       id="path901-9-34"
       style="fill:#483e37;stroke-width:0.629535"
       d="m 66.395361,64.624892 -6.346077,0.031 c 0,0 -0.737013,2.008364 -2.358442,4.716884 -1.621431,2.708533 -6.858107,4.74792 -6.858107,4.74792 0,2.358448 -5e-6,8.36317 0,11.606031 2.605063,0 2.806061,0.285144 6.485721,-1.334353 1.839829,-0.809743 7.988165,-4.602207 10.550933,-6.33056 2.562768,-1.728353 1.539971,-1.392593 2.792895,-3.972143 -5.058242,-5.771983 -4.266923,-4.254685 -4.266923,-9.464814 z"
       sodipodi:nodetypes="cssscssccc" />
    <path
       id="path901-9-3-7"
       style="fill:#6c5d53;stroke-width:0.596403"
       d="m 65.604042,65.152441 -5.647855,-0.527549 c 0,0 -1.101637,2.430206 -2.637731,4.996174 -1.536092,2.565971 -6.485721,4.499663 -6.485721,4.499663 v 9.49584 c 2.467956,0 2.393544,0.289023 5.799098,-1.258705 1.702777,-0.773863 7.714387,-4.513479 10.158208,-6.164011 2.443818,-1.650532 1.319848,-1.21198 2.506829,-3.655763 -2.637735,-4.747918 -2.901508,-5.539239 -2.901508,-7.913198 z"
       sodipodi:nodetypes="cssscssccc" />
    <path
       id="path901-9-1-60"
       style="fill:#917c6f;stroke-width:0.591668"
       d="m 66.659135,63.042251 -7.164231,1.034682 c 0,0 -0.69268,1.887563 -2.21658,4.433166 -1.523901,2.545601 -6.445589,4.55554 -6.445589,4.55554 0,2.216583 -4e-6,5.392949 0,8.44075 2.448368,0 2.119603,0.269622 5.270991,-1.287805 1.575695,-0.778719 7.46027,-4.520758 9.806468,-6.16765 2.346198,-1.646894 1.154023,-1.198639 2.331582,-3.623025 -1.582641,-4.484147 -2.37396,-6.594339 -1.582641,-7.385658 z"
       sodipodi:nodetypes="cssscsscc" />
    <path
       id="path901-9-3-5-5"
       style="fill:#ac9d93;stroke-width:0.560529"
       d="m 66.659135,63.042251 -7.240983,-0.265265 c 0,0 -1.035374,2.284026 -2.479069,4.69566 -1.443696,2.411623 -6.106348,4.274124 -6.106348,4.274124 0,2.099921 -4e-6,4.762036 0,7.649429 2.319508,0 1.854891,0.07606 4.871651,-1.611094 1.50838,-0.843578 7.325947,-4.634536 9.606475,-6.282236 2.280526,-1.647702 1.024012,-1.152133 2.139594,-3.448918 -0.79132,-2.110189 -1.055095,-4.220381 -0.79132,-5.0117 z"
       sodipodi:nodetypes="cssscsscc" />
    <path
       id="path901-9-34-5"
       style="fill:#483e37;stroke-width:0.629535"
       d="m 66.395361,62.375108 -6.346077,-0.031 c 0,0 -0.737014,-2.008364 -2.358443,-4.716884 -1.621431,-2.708533 -6.858108,-4.74792 -6.858108,-4.74792 0,-2.358448 -3e-6,-8.36317 0,-11.606031 2.605065,0 2.806063,-0.285144 6.485722,1.334353 1.839829,0.809743 7.988165,4.602207 10.550933,6.33056 2.562769,1.728353 1.539972,1.392593 2.792896,3.972143 -5.058242,5.771983 -4.266923,4.254682 -4.266923,9.464814 z"
       sodipodi:nodetypes="cssscssccc" />
    <path
       id="path901-9-3-7-1"
       style="fill:#6c5d53;stroke-width:0.596403"
       d="m 65.604042,61.847559 -5.647856,0.527549 c 0,0 -1.101638,-2.430206 -2.637731,-4.996174 -1.536092,-2.565972 -6.485722,-4.499663 -6.485722,-4.499663 v -9.49584 c 2.467956,0 2.393545,-0.289023 5.799099,1.258705 1.702778,0.773863 7.714388,4.513479 10.158205,6.164011 2.443822,1.650532 1.31985,1.21198 2.506832,3.655763 -2.637735,4.747918 -2.901508,5.539239 -2.901508,7.913198 z"
       sodipodi:nodetypes="cssscssccc" />
    <path
       id="path901-9-3-5-5-7-3"
       style="fill:#241c1c;stroke-width:0.556064"
       d="M 66.969473,64.555093 59.32425,64.292818 c 0,0 -1.018939,-2.284025 -2.439716,-4.69566 -1.420782,-2.411624 -6.009422,-4.274123 -6.009422,-4.274123 0,-2.099921 -3e-6,-4.762037 0,-7.64943 2.282691,0 1.825446,-0.07606 4.794322,1.611092 1.484439,0.843579 7.209662,4.634539 9.45399,6.28224 2.244327,1.647699 1.007757,1.152129 2.105635,3.448915 -0.778762,2.110189 -0.519176,4.747921 -0.259586,5.539241 z"
       sodipodi:nodetypes="cssscsscc" />
    <path
       id="path901-9-1-60-5"
       style="fill:#917c6f;stroke-width:0.591668"
       d="m 66.659135,63.957749 -7.164231,-1.034682 c 0,0 -0.692681,-1.887563 -2.21658,-4.433166 -1.523902,-2.545601 -6.445591,-4.55554 -6.445591,-4.55554 0,-2.216583 -3e-6,-5.392949 0,-8.44075 2.448369,0 2.119604,-0.269622 5.270991,1.287805 1.575696,0.778719 7.460271,4.520758 9.80647,6.16765 2.346198,1.646894 1.154022,1.198639 2.331582,3.623025 -1.582641,4.484147 -2.373961,6.594339 -1.582641,7.385658 z"
       sodipodi:nodetypes="cssscsscc" />
    <path
       id="path901-9-3-5-5-7"
       style="fill:#ac9d93;stroke-width:0.560529"
       d="m 67.186682,64.48529 -7.768531,-0.262276 c 0,0 -1.035374,-2.284026 -2.479068,-4.69566 -1.443698,-2.411623 -6.10635,-4.274125 -6.10635,-4.274125 0,-2.09992 -3e-6,-4.762035 0,-7.649428 2.319508,0 1.85489,-0.07608 4.871652,1.611094 1.508381,0.843578 7.325947,4.634536 9.606475,6.282236 2.280526,1.647702 1.024011,1.152132 2.139594,3.448918 -0.79132,2.110189 -0.527548,4.74792 -0.263772,5.539241 z"
       sodipodi:nodetypes="cssscsscc" />
    <path
       id="rect1972"
       style="fill:#666666;fill-opacity:1;stroke-width:0.529468"
       d="m 27.595784,50.963579 3.530749,0.83576 c 0,0.278587 0.137847,15.309076 0,23.401322 0,0 -3.530749,0.83576 -3.530749,0.83576 z"
       sodipodi:nodetypes="ccccc" />
    <path
       id="rect1972-3"
       style="fill:#999999;fill-opacity:1;stroke-width:0.480103"
       d="m 27.595784,53.470862 3.530749,0.408594 c 0,0.229062 0.137847,12.587463 0,19.241089 l -3.530749,0.408593 z"
       sodipodi:nodetypes="ccccc" />
    <path
       id="rect1972-3-2"
       style="fill:#cccccc;fill-opacity:1;stroke-width:0.400155"
       d="m 27.595784,56.530067 3.530749,0.283841 c 0,0.159123 0.137846,8.744259 0,13.366401 l -3.530749,0.283843 z"
       sodipodi:nodetypes="ccccc" />
    <path
       id="rect1972-3-0"
       style="fill:#ececec;fill-opacity:1;stroke-width:0.336854"
       d="m 27.595784,58.562876 3.530749,0.201143 c 0,0.112763 0.137846,6.196529 0,9.471963 l -3.530749,0.201142 z"
       sodipodi:nodetypes="ccccc" />
    <path
       id="rect1972-0"
       style="fill:#666666;fill-opacity:1;stroke-width:0.496822"
       d="m 34.657281,52.509061 1.765377,0.269224 1.765375,-0.269224 c 0,0.122646 0.03447,3.878387 0.0517,8.224881 0.01723,4.346494 0.01723,10.019622 -0.0517,13.582172 l -1.765375,-0.09872 -1.765377,0.09872 V 63.547198 Z"
       sodipodi:nodetypes="cccsccccc" />
    <path
       id="rect1972-3-8"
       style="fill:#999999;fill-opacity:1;stroke-width:0.4505"
       d="m 34.657281,54.716693 1.765377,0.179881 1.765375,-0.233729 c 0,0.100838 0.03447,3.285218 0.0517,6.763078 0.01723,3.477859 0.01723,8.076426 -0.0517,11.005631 l -1.765375,-0.233732 -1.765377,0.179884 V 63.5472 Z"
       sodipodi:nodetypes="cccsccccc" />
    <path
       id="rect1972-3-2-8"
       style="fill:#cccccc;fill-opacity:1;stroke-width:0.375482"
       d="m 34.657281,57.410275 1.765377,0.12496 1.765375,-0.180162 c 0,0.07006 0.03447,2.299972 0.0517,4.715971 0.01723,2.416001 0.01723,5.633417 -0.0517,7.668282 l -1.765375,-0.185255 -1.765377,0.124958 v -6.134376 z"
       sodipodi:nodetypes="cccsccccc" />
    <path
       id="rect1972-3-0-4"
       style="fill:#ececec;fill-opacity:1;stroke-width:0.316085"
       d="m 34.657281,59.200136 1.765377,0.08856 1.765375,-0.04905 c 0,0.04965 0.03447,1.551231 0.0517,3.263304 0.01723,1.712073 0.01723,3.909845 -0.0517,5.351826 l -1.765375,-0.04906 -1.765377,0.08855 v -4.34706 z"
       sodipodi:nodetypes="cccsccccc" />
    <circle
       style="fill:#483e37;fill-opacity:1;stroke-width:1.01137"
       id="path2035-4-4"
       cx="53.062717"
       cy="73.834694"
       r="1.4208517" />
    <circle
       style="fill:#c8beb7;fill-opacity:1;stroke-width:1.01137"
       id="path2035-7"
       cx="52.985298"
       cy="73.685188"
       r="1.4208517" />
    <circle
       style="fill:#483e37;fill-opacity:1;stroke-width:1.01137"
       id="path2035-4-8"
       cx="57.019321"
       cy="71.460732"
       r="1.4208517" />
    <circle
       style="fill:#c8beb7;fill-opacity:1;stroke-width:1.01137"
       id="path2035-9"
       cx="56.941895"
       cy="71.311226"
       r="1.4208517" />
    <circle
       style="fill:#483e37;fill-opacity:1;stroke-width:1.01137"
       id="path2035-4-9"
       cx="59.674671"
       cy="67.929153"
       r="1.4208517" />
    <circle
       style="fill:#c8beb7;fill-opacity:1;stroke-width:1.01137"
       id="path2035-5"
       cx="59.597252"
       cy="67.77964"
       r="1.4208517" />
  </g>
</svg>
