<?xml version="1.0" encoding="UTF-8" standalone="no"?>
<svg
   xmlns:dc="http://purl.org/dc/elements/1.1/"
   xmlns:cc="http://creativecommons.org/ns#"
   xmlns:rdf="http://www.w3.org/1999/02/22-rdf-syntax-ns#"
   xmlns:svg="http://www.w3.org/2000/svg"
   xmlns="http://www.w3.org/2000/svg"
   xmlns:sodipodi="http://sodipodi.sourceforge.net/DTD/sodipodi-0.dtd"
   xmlns:inkscape="http://www.inkscape.org/namespaces/inkscape"
   width="480"
   height="480"
   viewBox="0 0 127 127"
   version="1.1"
   id="svg917"
   inkscape:version="1.0.1 (3bc2e813f5, 2020-09-07)"
   sodipodi:docname="infoBoxes.svg">
  <defs
     id="defs911" />
  <sodipodi:namedview
     id="base"
     pagecolor="#ffffff"
     bordercolor="#666666"
     borderopacity="1.0"
     inkscape:pageopacity="0.0"
     inkscape:pageshadow="2"
     inkscape:zoom="1.979899"
     inkscape:cx="239.46792"
     inkscape:cy="545.14703"
     inkscape:document-units="mm"
     inkscape:current-layer="layer1"
     inkscape:document-rotation="0"
     showgrid="true"
     units="px"
     objecttolerance="10000"
     guidetolerance="10000"
     inkscape:pagecheckerboard="true"
     inkscape:window-width="1920"
     inkscape:window-height="1002"
     inkscape:window-x="-8"
     inkscape:window-y="-8"
     inkscape:window-maximized="1"
     inkscape:object-paths="true"
     inkscape:snap-smooth-nodes="true">
    <inkscape:grid
       type="xygrid"
       id="grid919"
       empspacing="8"
       dotted="false" />
  </sodipodi:namedview>
  <metadata
     id="metadata914">
    <rdf:RDF>
      <cc:Work
         rdf:about="">
        <dc:format>image/svg+xml</dc:format>
        <dc:type
           rdf:resource="http://purl.org/dc/dcmitype/StillImage" />
        <dc:title />
      </cc:Work>
    </rdf:RDF>
  </metadata>
  <g
     inkscape:label="Layer 1"
     inkscape:groupmode="layer"
     id="layer1">
    <path
       id="rect831"
       style="fill:#683a2a;stroke-width:0.564999;fill-opacity:1"
       d="m 12.7,55.033333 4.233333,4.233334 V 88.9 l 0,-3e-6 v 10e-7 H 12.7 v -10e-7 z"
       sodipodi:nodetypes="cccccccc" />
    <path
       id="rect833"
       style="fill:#8c4e34;stroke-width:0.564999;fill-opacity:1"
       d="m 8.4666667,50.8 4.2333323,4.233333 v 0 33.866664 10e-7 H 8.4666665 l -3e-7,-10e-7 5e-7,-31.749997 z"
       sodipodi:nodetypes="ccccccccc" />
    <path
       id="rect833-5"
       style="fill:#9a5e38;fill-opacity:1;stroke-width:0.564999"
       d="M 8.466667,50.800001 12.7,55.033333 v 0 l 90.69103,-3e-6 v 0 -4.233333 0 l -88.574363,4e-6 z"
       sodipodi:nodetypes="ccccccccc" />
    <path
       id="rect831-7"
       style="fill:#683a2a;fill-opacity:1;stroke-width:0.564999"
       d="m 12.699999,55.033334 4.233334,4.233333 86.457697,-3e-6 h 0 0 v -4.233333 h 0 z"
       sodipodi:nodetypes="cccccccc" />
    <path
       id="rect867"
       style="fill:#000000;fill-opacity:1;stroke-width:0.527332"
       d="m 16.933335,59.26667 h 29.633332 l 57.150003,-3e-6 V 88.9 c -9.87778,0 -76.905565,0 -86.783335,0 l -1e-6,-1e-6 V 59.26667 Z"
       sodipodi:nodetypes="cccccccc" />
    <path
       id="rect869"
       style="fill:#3a2822;fill-opacity:1;stroke-width:0.521538"
       d="m 25.074359,63.5 74.408974,-3e-6 c 2.164867,0 3.907697,1.742831 3.907697,3.907693 v 17.584618 c 0,2.164862 -1.74283,3.907692 -3.907697,3.907692 l -74.408974,3e-6 c -2.164862,0 -3.907693,-1.74283 -3.907693,-3.907692 V 67.407693 c 0,-2.164862 1.742831,-3.907693 3.907693,-3.907693 z"
       sodipodi:nodetypes="sssssssss" />
    <path
       id="rect831-4"
       style="fill:#8f420f;fill-opacity:1;stroke-width:0.564999"
       d="m 76.199996,105.83333 -4.233333,4.23334 V 139.7 v 0 0 h 4.233333 v 0 z"
       sodipodi:nodetypes="cccccccc" />
    <path
       id="rect833-58"
       style="fill:#7e3e12;fill-opacity:1;stroke-width:0.564999"
       d="m 80.433329,101.6 -4.233332,4.23333 v 0 33.86667 0 h 4.233333 v 0 l -10e-7,-31.75 z"
       sodipodi:nodetypes="ccccccccc" />
    <path
       id="rect833-5-9"
       style="fill:#d26f28;fill-opacity:1;stroke-width:0.564999"
       d="m 80.433329,101.6 -4.233333,4.23333 v 0 H 42.333333 v 0 -4.23333 0 l 31.749996,0 z"
       sodipodi:nodetypes="ccccccccc" />
    <path
       id="rect831-7-5"
       style="fill:#7e3e12;fill-opacity:1;stroke-width:0.564999"
       d="m 76.199997,105.83333 -4.233334,4.23334 h -29.633333 3e-6 -3e-6 v -4.23334 h 3e-6 z"
       sodipodi:nodetypes="cccccccc" />
    <rect
       style="fill:#000000;fill-opacity:1;stroke-width:0.527333"
       id="rect867-2"
       width="29.633333"
       height="29.633327"
       x="-71.96666"
       y="110.06667"
       ry="2.3735903e-07"
       transform="scale(-1,1)" />
    <rect
       style="fill:#3c2210;fill-opacity:1;stroke-width:0.542833"
       id="rect869-8"
       width="27.516663"
       height="25.400003"
       x="-69.849998"
       y="114.3"
       ry="3.9076927"
       transform="scale(-1,1)" />
    <rect
       style="fill:#c87137;fill-opacity:1;stroke-width:0.564999"
       id="rect917"
       width="8.4666662"
       height="48.683334"
       x="0"
       y="40.216667"
       ry="2.5431328e-07" />
    <rect
       style="fill:#c67139;fill-opacity:1;stroke-width:0.564999"
       id="rect919"
       width="95.25"
       height="10.583333"
       x="6.3499999"
       y="40.216667"
       ry="2.5431328e-07" />
    <path
       id="rect831-0"
       style="fill:#705e5e;fill-opacity:1;stroke-width:0.564999"
       d="M 122.76667,65.616663 127,69.849997 v 29.633332 0 0 h -4.23333 v 0 z"
       sodipodi:nodetypes="cccccccc" />
    <rect
       style="fill:#c87137;fill-opacity:1;stroke-width:0.564999"
       id="rect917-9"
       width="8.4666662"
       height="48.683334"
       x="110.06667"
       y="50.799999"
       ry="2.5431328e-07" />
    <rect
       style="fill:#c67139;fill-opacity:1;stroke-width:0.564999"
       id="rect919-3"
       width="95.25"
       height="10.583333"
       x="116.41666"
       y="50.799999"
       ry="2.5431328e-07" />
    <path
       id="rect833-4"
       style="fill:#433c3c;fill-opacity:1;stroke-width:0.710941"
       d="m 116.41667,59.266667 6.35,6.35 v 0 l 0,33.866662 v 0 h -6.35 v 0 -33.513885 z"
       sodipodi:nodetypes="ccccccccc" />
    <path
       id="rect833-5-7"
       style="fill:#5f5454;fill-opacity:1;stroke-width:0.699652"
       d="m 116.41667,59.266667 6.3028,6.349996 v 0 l 92.71329,-4e-6 v 0 -6.349998 0 l -90.54943,6e-6 z"
       sodipodi:nodetypes="ccccccccc" />
    <path
       id="rect831-7-4"
       style="fill:#705e5e;fill-opacity:1;stroke-width:0.564999"
       d="M 122.76667,65.616664 127,69.849997 l 86.45769,-3e-6 v 0 0 -4.233333 0 z"
       sodipodi:nodetypes="cccccccc" />
    <path
       id="rect867-29"
       style="fill:#000000;fill-opacity:1;stroke-width:0.527333"
       d="m 127,69.85 h 29.63333 l 57.15,-3e-6 v 29.633332 c -9.87777,0 -76.90556,0 -86.78333,0 h 0 V 69.85 Z"
       sodipodi:nodetypes="cccccccc" />
    <path
       id="rect869-7"
       style="fill:#3a2822;fill-opacity:1;stroke-width:0.521539"
       d="m 135.14102,74.08333 74.40898,-3e-6 c 2.16486,0 3.90769,1.742831 3.90769,3.907693 v 17.584618 c 0,2.164863 -1.74283,3.907691 -3.90769,3.907691 h -74.40898 c -2.16486,0 -3.90769,-1.742826 -3.90769,-3.907689 V 77.991023 c 0,-2.164862 1.74283,-3.907693 3.90769,-3.907693 z"
       sodipodi:nodetypes="sssssssss" />
    <rect
       style="fill:#c67139;fill-opacity:1;stroke-width:7.19423"
       id="rect919-3-0"
       width="507.99994"
       height="321.73334"
       x="389.46674"
       y="50.799999"
       ry="7.7311233e-06" />
    <path
       id="rect984-0"
       style="fill:#2b1100;fill-opacity:1;stroke-width:0.564999"
       d="m 389.34215,332.31667 416.98333,-10e-6 v 0 L 780.92549,361.95 v 0 l -391.58334,1e-5 v 0 z"
       sodipodi:nodetypes="cccccccc" />
    <path
       id="rect984"
       style="fill:#49392e;fill-opacity:1;stroke-width:0.564999"
       d="m 389.34214,328.08333 h 416.98334 v 0 l -25.39999,29.63334 v 0 H 389.34214 v 0 z"
       sodipodi:nodetypes="cccccccc" />
    <path
       id="rect984-0-2"
       style="fill:#2b1100;fill-opacity:1;stroke-width:0.564999"
       d="m 897.46663,361.94998 -80.43329,1e-5 v 0 l 25.39999,-29.63334 v 0 l 55.0333,-10e-6 v 0 z"
       sodipodi:nodetypes="cccccccc" />
    <path
       id="rect984-06"
       style="fill:#005522;fill-opacity:1;stroke-width:0.564999"
       d="m 897.46666,357.71665 h -80.4333 v 0 l 25.39999,-29.63334 v 0 h 55.03331 v 0 z"
       sodipodi:nodetypes="cccccccc" />
    <path
       id="rect984-0-3"
       style="fill:#2b1100;fill-opacity:1;stroke-width:0.564999"
       d="m 342.90001,-59.266667 2e-5,86.783333 v 0 L 313.26669,2.1166763 v 0 l -2e-5,-61.3833433 v 0 z"
       sodipodi:nodetypes="cccccccc" />
    <path
       id="rect984-5"
       style="fill:#803300;fill-opacity:1;stroke-width:0.564999"
       d="m 340.78334,-59.266664 v 82.54999 0 L 311.15,-2.1166637 v 0 -57.1500003 0 z"
       sodipodi:nodetypes="cccccccc" />
    <path
       id="rect984-6"
       style="fill:#785239;fill-opacity:1;stroke-width:0.507218"
       d="m 389.34215,330.2 h 410.63333 l -21.16667,25.4 c -51.46404,10e-6 -329.41143,0 -380.87548,0 h -8.59118 z"
       sodipodi:nodetypes="cccccc" />
    <path
       id="rect984-06-8"
       style="fill:#217821;fill-opacity:1;stroke-width:0.509136"
       d="m 897.46665,355.6 h -76.97979 l 2.89646,-2e-5 21.16667,-25.4 v 0 h 52.91666 v 0 z"
       sodipodi:nodetypes="cccccccc" />
    <path
       id="rect984-0-2-6"
       style="fill:#2b1100;fill-opacity:1;stroke-width:0.564999"
       d="m 897.46665,285.74998 -38.09998,1e-5 v 0 l 12.69998,-29.63334 v 0 l 25.4,-10e-6 v 0 z"
       sodipodi:nodetypes="cccccccc" />
    <path
       id="rect984-06-6"
       style="fill:#554e00;fill-opacity:1;stroke-width:0.564999"
       d="m 897.46668,281.51666 h -38.09999 v 0 l 12.69998,-29.63335 v 0 l 25.40001,0 v 0 z"
       sodipodi:nodetypes="cccccccc" />
    <path
       id="rect984-06-8-3"
       style="fill:#aba72f;fill-opacity:1;stroke-width:0.509135"
       d="m 897.46667,279.4 h -34.64648 l 0.7798,-2e-5 10.58332,-25.4 v 0 h 23.28336 v 0 z"
       sodipodi:nodetypes="cccccccc" />
    <path
       id="rect984-0-2-6-7"
       style="fill:#2b1100;fill-opacity:1;stroke-width:0.564999"
       d="m 897.46666,249.76665 -38.09998,1e-5 v 0 l 12.69998,-29.63334 v 0 l 25.4,-1e-5 v 0 z"
       sodipodi:nodetypes="cccccccc" />
    <path
       id="rect984-06-6-6"
       style="fill:#553100;fill-opacity:1;stroke-width:0.564999"
       d="M 897.46669,245.53333 H 859.3667 v 0 l 12.69998,-29.63335 v 0 h 25.40001 v 0 z"
       sodipodi:nodetypes="cccccccc" />
    <path
       id="rect984-06-8-3-6"
       style="fill:#ab772f;fill-opacity:1;stroke-width:0.509135"
       d="M 897.46668,243.41667 H 862.8202 l 0.7798,-2e-5 10.58332,-25.4 v 0 h 23.28336 v 0 z"
       sodipodi:nodetypes="cccccccc" />
    <path
       id="rect984-0-2-6-4"
       style="fill:#2b1100;fill-opacity:1;stroke-width:0.564999"
       d="m 897.46666,213.78333 -38.09998,1e-5 v 0 l 12.69998,-29.63335 v 0 h 25.4 v 0 z"
       sodipodi:nodetypes="cccccccc" />
    <path
       id="rect984-06-6-0"
       style="fill:#0d1048;fill-opacity:1;stroke-width:0.564999"
       d="M 897.46669,209.55001 H 859.3667 v 0 l 12.69998,-29.63335 v 0 h 25.40001 v 0 z"
       sodipodi:nodetypes="cccccccc" />
    <path
       id="rect984-06-8-3-2"
       style="fill:#2f60ab;fill-opacity:1;stroke-width:0.509135"
       d="M 897.46668,207.43335 H 862.8202 l 0.7798,-2e-5 10.58332,-25.4 v 0 h 23.28336 v 0 z"
       sodipodi:nodetypes="cccccccc" />
    <path
       id="rect984-0-2-6-7-2"
       style="fill:#2b1100;fill-opacity:1;stroke-width:0.564999"
       d="m 897.46667,177.79999 -38.09998,2e-5 v 0 l 12.69998,-29.63334 v 0 l 25.4,-1e-5 v 0 z"
       sodipodi:nodetypes="cccccccc" />
    <path
       id="rect984-06-6-6-3"
       style="fill:#62075e;fill-opacity:1;stroke-width:0.564999"
       d="m 897.4667,173.56667 h -38.09999 v 0 l 12.69998,-29.63334 v 0 h 25.40001 v 0 z"
       sodipodi:nodetypes="cccccccc" />
    <path
       id="rect984-06-8-3-6-6"
       style="fill:#993576;fill-opacity:1;stroke-width:0.509135"
       d="m 897.46669,171.45002 h -34.64648 l 0.7798,-3e-5 10.58332,-25.39999 v 0 h 23.28336 v 0 z"
       sodipodi:nodetypes="cccccccc" />
    <path
       id="rect984-0-2-6-6"
       style="fill:#2b1100;fill-opacity:1;stroke-width:0.564999"
       d="m 389.46666,294.21668 325.96667,-10e-6 v 0 l -12.69998,29.63334 v 0 c -104.42223,-10e-6 -208.84446,0 -313.26669,10e-6 z"
       sodipodi:nodetypes="ccccccc" />
    <path
       id="rect984-06-6-61"
       style="fill:#554e00;fill-opacity:1;stroke-width:0.564999"
       d="m 387.35001,289.9833 h 325.96668 v 0 l -12.69998,29.63335 v 0 h -313.2667 v 0 z"
       sodipodi:nodetypes="cccccccc" />
    <path
       id="rect984-06-8-3-4"
       style="fill:#aba72f;fill-opacity:1;stroke-width:0.509135"
       d="m 387.35002,292.09996 h 322.51317 l -0.7798,2e-5 -10.58332,25.4 v 0 H 387.35002 v 0 z"
       sodipodi:nodetypes="cccccccc" />
    <path
       id="rect984-0-2-6-6-9"
       style="fill:#2b1100;fill-opacity:1;stroke-width:0.564999"
       d="m 715.43332,563.03333 69.85001,-10e-6 v 0 l -12.7,29.63335 v 0 c -104.42222,-2e-5 47.27222,0 -57.15001,0 z"
       sodipodi:nodetypes="ccccccc" />
    <path
       id="rect984-06-6-61-3"
       style="fill:#cccccc;fill-opacity:1;stroke-width:0.645712"
       d="M 0,-3.3333333e-6 H 29.63333 L 14.81666,33.866667 H 0 Z"
       sodipodi:nodetypes="ccccc"
       inkscape:export-filename="C:\Users\edhoc\Documents\Programming\td_game\client\assets\infoBoxes\sprites\slanted_infobox_greyscale_1.png"
       inkscape:export-xdpi="62.999985"
       inkscape:export-ydpi="62.999985" />
    <path
       id="rect984-06-8-3-4-4"
       style="fill:#ffffff;fill-opacity:1;stroke-width:0.581868"
       d="M 0,2.1166667 H 25.4 L 12.7,31.749997 v 0 c 0,0 -12.7,0 -12.7,0 z"
       sodipodi:nodetypes="cccccc"
       inkscape:export-filename="C:\Users\edhoc\Documents\Programming\td_game\client\assets\infoBoxes\sprites\slanted_infobox_greyscale_1.png"
       inkscape:export-xdpi="62.999985"
       inkscape:export-ydpi="62.999985" />
    <path
       id="rect984-06-6-61-3-7"
       style="fill:#cccccc;fill-opacity:1;stroke-width:0.645713"
       d="M 57.15,-3e-7 H 86.783331 L 71.96666,33.866672 l -29.633327,-5e-6 z"
       sodipodi:nodetypes="ccccc"
       inkscape:export-filename="C:\Users\edhoc\Documents\Programming\td_game\client\assets\infoBoxes\sprites\slanted_infobox_greyscale_2.png"
       inkscape:export-xdpi="62.999985"
       inkscape:export-ydpi="62.999985" />
    <path
       id="rect984-06-8-3-4-4-6"
       style="fill:#ffffff;fill-opacity:1;stroke-width:0.581869"
       d="M 59.266667,2.1166667 82.55,2.1166698 69.85,31.75 v 0 l -23.283333,0 z"
       sodipodi:nodetypes="cccccc"
       inkscape:export-filename="C:\Users\edhoc\Documents\Programming\td_game\client\assets\infoBoxes\sprites\slanted_infobox_greyscale_2.png"
       inkscape:export-xdpi="62.999985"
       inkscape:export-ydpi="62.999985" />
  </g>
</svg>
