<?xml version="1.0" encoding="UTF-8" standalone="no"?>
<svg
   xmlns:dc="http://purl.org/dc/elements/1.1/"
   xmlns:cc="http://creativecommons.org/ns#"
   xmlns:rdf="http://www.w3.org/1999/02/22-rdf-syntax-ns#"
   xmlns:svg="http://www.w3.org/2000/svg"
   xmlns="http://www.w3.org/2000/svg"
   xmlns:sodipodi="http://sodipodi.sourceforge.net/DTD/sodipodi-0.dtd"
   xmlns:inkscape="http://www.inkscape.org/namespaces/inkscape"
   width="480"
   height="480"
   viewBox="0 0 127 127"
   version="1.1"
   id="svg917"
   inkscape:version="1.0.1 (3bc2e813f5, 2020-09-07)"
   sodipodi:docname="shrapnelBurst2.svg"
   inkscape:export-filename="C:\Users\edhoc\Documents\Programming\td_game\client\img\towers\2-shrapnel_burst\base-layer.png"
   inkscape:export-xdpi="12.8"
   inkscape:export-ydpi="12.8">
  <defs
     id="defs911">
    <filter
       inkscape:collect="always"
       style="color-interpolation-filters:sRGB"
       id="filter2708-9"
       x="-9.4421591e-07"
       width="1.0000019"
       y="-1.6458551e-06"
       height="1.0000033">
      <feGaussianBlur
         inkscape:collect="always"
         stdDeviation="2.3018409e-05"
         id="feGaussianBlur2710-2" />
    </filter>
    <filter
       inkscape:collect="always"
       style="color-interpolation-filters:sRGB"
       id="filter2708-9-5"
       x="-9.4421591e-07"
       width="1.0000019"
       y="-1.6458551e-06"
       height="1.0000033">
      <feGaussianBlur
         inkscape:collect="always"
         stdDeviation="2.3018409e-05"
         id="feGaussianBlur2710-2-2" />
    </filter>
    <filter
       inkscape:collect="always"
       style="color-interpolation-filters:sRGB"
       id="filter2708-9-4"
       x="-9.4421591e-07"
       width="1.0000019"
       y="-1.6458551e-06"
       height="1.0000033">
      <feGaussianBlur
         inkscape:collect="always"
         stdDeviation="2.3018409e-05"
         id="feGaussianBlur2710-2-9" />
    </filter>
    <filter
       inkscape:collect="always"
       style="color-interpolation-filters:sRGB"
       id="filter2708-9-4-8"
       x="-9.4421591e-07"
       width="1.0000019"
       y="-1.6458551e-06"
       height="1.0000033">
      <feGaussianBlur
         inkscape:collect="always"
         stdDeviation="2.3018409e-05"
         id="feGaussianBlur2710-2-9-5" />
    </filter>
    <filter
       inkscape:collect="always"
       style="color-interpolation-filters:sRGB"
       id="filter2708-9-5-0"
       x="-9.4421591e-07"
       width="1.0000019"
       y="-1.6458551e-06"
       height="1.0000033">
      <feGaussianBlur
         inkscape:collect="always"
         stdDeviation="2.3018409e-05"
         id="feGaussianBlur2710-2-2-3" />
    </filter>
    <filter
       inkscape:collect="always"
       style="color-interpolation-filters:sRGB"
       id="filter2708-9-3"
       x="-9.4421591e-07"
       width="1.0000019"
       y="-1.6458551e-06"
       height="1.0000033">
      <feGaussianBlur
         inkscape:collect="always"
         stdDeviation="2.3018409e-05"
         id="feGaussianBlur2710-2-29" />
    </filter>
  </defs>
  <sodipodi:namedview
     id="base"
     pagecolor="#ffffff"
     bordercolor="#666666"
     borderopacity="1.0"
     inkscape:pageopacity="0.0"
     inkscape:pageshadow="2"
     inkscape:zoom="1.4182101"
     inkscape:cx="337.21686"
     inkscape:cy="215.79655"
     inkscape:document-units="mm"
     inkscape:current-layer="g4383"
     inkscape:document-rotation="0"
     showgrid="true"
     units="px"
     objecttolerance="10000"
     guidetolerance="10000"
     inkscape:pagecheckerboard="true"
     inkscape:window-width="1920"
     inkscape:window-height="1002"
     inkscape:window-x="-8"
     inkscape:window-y="-8"
     inkscape:window-maximized="1">
    <inkscape:grid
       type="xygrid"
       id="grid919"
       empspacing="8"
       dotted="false" />
  </sodipodi:namedview>
  <metadata
     id="metadata914">
    <rdf:RDF>
      <cc:Work
         rdf:about="">
        <dc:format>image/svg+xml</dc:format>
        <dc:type
           rdf:resource="http://purl.org/dc/dcmitype/StillImage" />
        <dc:title />
      </cc:Work>
    </rdf:RDF>
  </metadata>
  <g
     inkscape:groupmode="layer"
     id="layer7"
     inkscape:label="Bottom"
     style="display:inline">
    <g
       id="g4383"
       transform="translate(-94.66802,12.189924)"
       inkscape:export-filename="C:\Users\edhoc\Documents\Programming\td_game\client\img\towers\2-shrapnel_burst\bottom-layer.png"
       inkscape:export-xdpi="9.6000004"
       inkscape:export-ydpi="9.6000004"
       style="display:inline">
      <path
         style="fill:#483e37;stroke-width:0.23908;stroke-opacity:0.919355"
         id="path2253-24"
         sodipodi:type="arc"
         sodipodi:cx="158.16801"
         sodipodi:cy="51.310078"
         sodipodi:rx="40"
         sodipodi:ry="40"
         sodipodi:start="1.5448731"
         sodipodi:end="1.5245468"
         sodipodi:arc-type="arc"
         sodipodi:open="true"
         d="m 159.20483,91.296638 a 40,40 0 0 1 -41.01759,-38.746567 40,40 0 0 1 38.53763,-41.213952 40,40 0 0 1 41.40925,38.327706 40,40 0 0 1 -38.11678,41.60348" />
      <path
         style="fill:#5e5149;fill-opacity:1;stroke-width:0.215175;stroke-opacity:0.919355"
         id="path2253-2-8"
         sodipodi:type="arc"
         sodipodi:cx="158.16801"
         sodipodi:cy="51.310078"
         sodipodi:rx="36"
         sodipodi:ry="36"
         sodipodi:start="1.5448731"
         sodipodi:end="1.5245468"
         sodipodi:arc-type="arc"
         sodipodi:open="true"
         d="M 159.10115,87.297982 A 36,36 0 0 1 122.18532,52.426072 36,36 0 0 1 156.86919,15.333515 36,36 0 0 1 194.13751,49.82845 36,36 0 0 1 159.8324,87.271582" />
      <g
         id="g5025-0-2-3"
         transform="matrix(12.45533,-6.4725251,6.7240684,12.125549,41.106586,25.942062)"
         style="display:inline;filter:url(#filter2708-9-3)">
        <path
           id="rect4569-4-2-8-7"
           style="fill:#cccccc;fill-opacity:1;stroke-width:0.264999"
           d="M 8.9958333,2.6458333 9.2604167,2.38125 9.525,3.175 V 3.4395833 L 9.2604167,3.7041667 8.9533221,4.3987666 7.9375,3.175 8.4666667,2.9104167 Z"
           sodipodi:nodetypes="ccccccccc" />
        <path
           id="rect4777-1-2-0-0-4-7"
           style="fill:#4d4d4d;fill-opacity:1;stroke-width:0.264999"
           d="M 8.0917381,3.3013926 7.9375,3.175 8.9958333,2.6458333 9.2604167,2.38125 9.2219971,2.6539526 9.0486324,2.8234823 Z"
           sodipodi:nodetypes="ccccccc" />
        <path
           id="rect4777-1-3-0-6-78"
           style="fill:#808080;fill-opacity:1;stroke-width:0.264999"
           d="M 9.2604167,3.7041667 8.9533221,4.3987666 8.8531643,4.1538607 9.1284518,3.6481219 9.3616676,3.4172342 9.3589972,3.1778813 9.2219971,2.6539526 9.2604167,2.38125 9.525,3.175 v 0.2645833 z"
           sodipodi:nodetypes="ccccccccccc" />
      </g>
      <g
         id="g5025-0-5-9"
         transform="matrix(6.0608629,11.421588,-11.227422,6.2201236,201.22457,-34.128827)"
         style="display:inline;filter:url(#filter2708-9-3)">
        <g
           id="g4896"
           transform="matrix(0.94560489,0.31097471,-0.30643288,0.95674963,-0.02054815,-1.2625969)">
          <path
             id="rect4569-4-2-3-6"
             style="fill:#cccccc;fill-opacity:1;stroke-width:0.264999"
             d="M 8.9958333,2.6458333 9.2604167,2.38125 9.525,3.175 V 3.4395833 L 9.2604167,3.7041667 8.9533221,4.3987666 7.9375,3.175 8.4666667,2.9104167 Z"
             sodipodi:nodetypes="ccccccccc" />
          <path
             id="rect4777-1-2-0-0-7-0"
             style="fill:#4d4d4d;fill-opacity:1;stroke-width:0.264999"
             d="M 8.0917381,3.3013926 7.9375,3.175 8.9958333,2.6458333 9.2604167,2.38125 9.2219971,2.6539526 9.0486324,2.8234823 Z"
             sodipodi:nodetypes="ccccccc" />
          <path
             id="rect4777-1-3-0-1-3"
             style="fill:#808080;fill-opacity:1;stroke-width:0.264999"
             d="M 9.2604167,3.7041667 8.9533221,4.3987666 8.8531643,4.1538607 9.1284518,3.6481219 9.3616676,3.4172342 9.3589972,3.1778813 9.2219971,2.6539526 9.2604167,2.38125 9.525,3.175 v 0.2645833 z"
             sodipodi:nodetypes="ccccccccccc" />
        </g>
      </g>
      <path
         id="rect4569-45-2-9-2"
         style="fill:#cccccc;fill-opacity:1;stroke-width:0.264999;filter:url(#filter2708-9-3)"
         d="m 4.0708184,8.9065669 0.1647277,0.3368293 0.35469,0.4105957 0.658722,0.4219261 -0.089583,0.11054 -0.6614584,0.132292 -0.79375,0.529167 0.1322916,-1.7197918 z"
         sodipodi:nodetypes="ccccccccc"
         transform="matrix(14.237186,7.1543306,-4.657315,12.026222,103.59171,-79.147429)" />
      <path
         id="rect4777-1-14-34-0-9-6"
         style="fill:#808080;fill-opacity:1;stroke-width:0.264999;filter:url(#filter2708-9-3)"
         d="M 3.8364583,9.1281252 4.0708184,8.9065669 4.1972193,9.1146646 3.9881755,9.2754455 3.943272,10.413415 3.7041674,10.847922 Z"
         sodipodi:nodetypes="ccccccc"
         transform="matrix(14.237186,7.1543306,-4.657315,12.026222,103.59171,-79.147429)" />
      <path
         id="rect4777-1-2-00-6-9-8-6-7"
         style="fill:#4d4d4d;fill-opacity:1;stroke-width:0.264999;filter:url(#filter2708-9-3)"
         d="m 5.1160569,9.9814708 0.1329012,0.094447 -0.089583,0.11054 -0.6614584,0.132292 -0.79375,0.529167 L 3.943272,10.413415 4.4615287,10.09258 5.0792723,9.9718419 Z"
         sodipodi:nodetypes="ccccccccc"
         transform="matrix(14.237186,7.1543306,-4.657315,12.026222,103.59171,-79.147429)" />
    </g>
  </g>
  <g
     inkscape:groupmode="layer"
     id="layer6"
     inkscape:label="Mid"
     style="display:inline">
    <path
       style="fill:#6c5d53;stroke-width:0.194252;stroke-opacity:0.919355"
       id="path2253-9-7"
       sodipodi:type="arc"
       sodipodi:cx="63.5"
       sodipodi:cy="63.5"
       sodipodi:rx="32.5"
       sodipodi:ry="32.5"
       sodipodi:start="1.5448731"
       sodipodi:end="1.5245468"
       sodipodi:arc-type="arc"
       sodipodi:open="true"
       d="M 64.342411,95.98908 A 32.5,32.5 0 0 1 31.01562,64.507495 32.5,32.5 0 0 1 62.327447,31.021159 32.5,32.5 0 0 1 95.972463,62.162419 32.5,32.5 0 0 1 65.002574,95.965247" />
    <path
       style="fill:#7c6b60;fill-opacity:1;stroke-width:0.166265;stroke-opacity:0.919355"
       id="path2253-2-1-6"
       sodipodi:type="arc"
       sodipodi:cx="63.499992"
       sodipodi:cy="63.5"
       sodipodi:rx="27.930325"
       sodipodi:ry="27.704599"
       sodipodi:start="1.5448731"
       sodipodi:end="1.5245468"
       sodipodi:arc-type="arc"
       sodipodi:open="true"
       d="M 64.223955,91.195291 A 27.930325,27.704599 0 0 1 35.583091,64.358838 27.930325,27.704599 0 0 1 62.492307,35.813437 27.930325,27.704599 0 0 1 91.406652,62.359781 27.930325,27.704599 0 0 1 64.791296,91.174974" />
    <g
       id="g5025-0-2-5-1"
       transform="matrix(9.0825524,-6.9688916,-6.8413515,-9.4766493,38.29975,150.381)"
       style="display:inline;filter:url(#filter2708-9-5-0)">
      <g
         id="g4718"
         transform="matrix(0.89579471,0.41048873,-0.42788061,0.92025529,2.8677357,-2.845178)">
        <path
           id="rect4569-4-2-8-1-3"
           style="fill:#cccccc;fill-opacity:1;stroke-width:0.264999"
           d="M 8.9958333,2.6458333 9.2604167,2.38125 9.525,3.175 V 3.4395833 L 9.2604167,3.7041667 8.9533221,4.3987666 7.9375,3.175 8.4666667,2.9104167 Z"
           sodipodi:nodetypes="ccccccccc" />
        <path
           id="rect4777-1-2-0-0-4-3-9"
           style="fill:#4d4d4d;fill-opacity:1;stroke-width:0.264999"
           d="M 8.0917381,3.3013926 7.9375,3.175 8.9958333,2.6458333 9.2604167,2.38125 9.2219971,2.6539526 9.0486324,2.8234823 Z"
           sodipodi:nodetypes="ccccccc" />
        <path
           id="rect4777-1-3-0-6-9-7"
           style="fill:#808080;fill-opacity:1;stroke-width:0.264999"
           d="M 9.2604167,3.7041667 8.9533221,4.3987666 8.8531643,4.1538607 9.1284518,3.6481219 9.3616676,3.4172342 9.3589972,3.1778813 9.2219971,2.6539526 9.2604167,2.38125 9.525,3.175 v 0.2645833 z"
           sodipodi:nodetypes="ccccccccccc" />
      </g>
    </g>
    <g
       id="g5025-0-5-4-2"
       transform="matrix(8.4973753,7.9010018,8.3941155,-8.5768513,-36.98286,67.391198)"
       style="display:inline;filter:url(#filter2708-9-5-0)">
      <path
         id="rect4569-4-2-3-8-1"
         style="fill:#cccccc;fill-opacity:1;stroke-width:0.264999"
         d="M 8.5582722,3.2384563 8.8228556,2.973873 9.0874389,3.767623 V 4.0322063 L 8.8228556,4.2967897 8.515761,4.9913896 7.4999389,3.767623 8.0291056,3.5030397 Z"
         sodipodi:nodetypes="ccccccccc" />
      <path
         id="rect4777-1-2-0-0-7-7-1"
         style="fill:#4d4d4d;fill-opacity:1;stroke-width:0.264999"
         d="M 7.654177,3.8940156 7.4999389,3.767623 8.5582722,3.2384563 8.8228556,2.973873 8.784436,3.2465756 8.6110713,3.4161053 Z"
         sodipodi:nodetypes="ccccccc" />
      <path
         id="rect4777-1-3-0-1-6-4"
         style="fill:#808080;fill-opacity:1;stroke-width:0.264999"
         d="M 8.8228556,4.2967897 8.515761,4.9913896 8.4156032,4.7464837 8.6908907,4.2407449 8.9241065,4.0098572 8.9214361,3.7705043 8.784436,3.2465756 8.8228556,2.973873 9.0874389,3.767623 v 0.2645833 z"
         sodipodi:nodetypes="ccccccccccc" />
    </g>
    <g
       id="g5045-6-4-4-8"
       transform="matrix(10.738624,-6.9408399,-6.9783578,-10.853876,51.942856,191.67666)"
       style="display:inline;filter:url(#filter2708-9-5-0)">
      <path
         id="rect4569-45-2-9-7-6"
         style="fill:#cccccc;fill-opacity:1;stroke-width:0.264999"
         d="m 4.0708184,8.9065669 0.1647277,0.3368293 0.35469,0.4105957 0.658722,0.4219261 -0.089583,0.11054 -0.6614584,0.132292 -0.79375,0.529167 0.1322916,-1.7197918 z"
         sodipodi:nodetypes="ccccccccc" />
      <path
         id="rect4777-1-14-34-0-9-9-9"
         style="fill:#808080;fill-opacity:1;stroke-width:0.264999"
         d="M 3.8364583,9.1281252 4.0708184,8.9065669 4.1972193,9.1146646 3.9881755,9.2754455 3.943272,10.413415 3.7041674,10.847922 Z"
         sodipodi:nodetypes="ccccccc" />
      <path
         id="rect4777-1-2-00-6-9-8-6-8-6"
         style="fill:#4d4d4d;fill-opacity:1;stroke-width:0.264999"
         d="m 5.1160569,9.9814708 0.1329012,0.094447 -0.089583,0.11054 -0.6614584,0.132292 -0.79375,0.529167 L 3.943272,10.413415 4.4615287,10.09258 5.0792723,9.9718419 Z"
         sodipodi:nodetypes="ccccccccc" />
    </g>
  </g>
  <g
     inkscape:label="Top"
     inkscape:groupmode="layer"
     id="layer1"
     style="display:inline">
    <g
       id="g2654"
       transform="translate(174.47156,-61.38332)">
      <path
         style="fill:#241f1c;stroke-width:0.23908;stroke-opacity:0.919355"
         id="path2253"
         sodipodi:type="arc"
         sodipodi:cx="40"
         sodipodi:cy="40"
         sodipodi:rx="40"
         sodipodi:ry="40"
         sodipodi:start="1.5448731"
         sodipodi:end="1.5245468"
         sodipodi:arc-type="arc"
         d="M 41.036813,79.98656 A 40,40 0 0 1 0.01922441,41.239993 40,40 0 0 1 38.556858,0.02604171 40,40 0 0 1 79.966109,38.353747 40,40 0 0 1 41.849322,79.957227"
         sodipodi:open="true" />
      <path
         style="fill:#483e37;stroke-width:0.23908;stroke-opacity:0.919355"
         id="path2253-4"
         sodipodi:type="arc"
         sodipodi:cx="40.216667"
         sodipodi:cy="40.216667"
         sodipodi:rx="40"
         sodipodi:ry="40"
         sodipodi:start="3.8904812"
         sodipodi:end="1.5245468"
         sodipodi:arc-type="slice"
         d="M 10.918826,12.983663 A 40,40 0 0 1 58.824029,4.8081079 40,40 0 0 1 79.263042,48.898866 40,40 0 0 1 42.065989,80.173894 L 40.216667,40.216667 Z"
         inkscape:transform-center-x="-5.55625" />
      <path
         style="fill:#6c5d53;stroke-width:0.23908;stroke-opacity:0.919355"
         id="path2253-4-5"
         sodipodi:type="arc"
         sodipodi:cx="30.176666"
         sodipodi:cy="47.72673"
         sodipodi:rx="40"
         sodipodi:ry="40"
         sodipodi:start="4.6108978"
         sodipodi:end="1.5245468"
         sodipodi:arc-type="arc"
         d="M 26.123985,7.9325628 A 40,40 0 0 1 63.038573,24.921136 40,40 0 0 1 66.037652,65.446486 40,40 0 0 1 32.025988,87.683958"
         inkscape:transform-center-x="-1.4821293"
         sodipodi:open="true"
         transform="rotate(-12.905016)"
         inkscape:transform-center-y="2.0615722" />
      <path
         style="fill:#917c6f;stroke-width:0.23908;stroke-opacity:0.919355"
         id="path2253-4-5-1"
         sodipodi:type="arc"
         sodipodi:cx="-0.83141643"
         sodipodi:cy="56.868877"
         sodipodi:rx="40"
         sodipodi:ry="40"
         sodipodi:start="5.8819421"
         sodipodi:end="1.5245468"
         sodipodi:arc-type="slice"
         d="M 35.99163,41.246353 A 40,40 0 0 1 33.023645,78.172276 40,40 0 0 1 1.0179052,96.826105 L -0.83141643,56.868877 Z"
         inkscape:transform-center-x="-1.4785402"
         transform="rotate(-45.837598)"
         inkscape:transform-center-y="0.073623297" />
      <path
         style="fill:#ac9d93;stroke-width:0.23908;stroke-opacity:0.919355"
         id="path2253-4-5-1-9"
         sodipodi:type="arc"
         sodipodi:cx="-21.004946"
         sodipodi:cy="52.854073"
         sodipodi:rx="40.585407"
         sodipodi:ry="40"
         sodipodi:start="0.27879021"
         sodipodi:end="1.5245468"
         sodipodi:arc-type="slice"
         d="M 18.013421,63.861783 A 40.585407,40 0 0 1 -19.128559,92.8113 l -1.876387,-39.957227 z"
         inkscape:transform-center-x="-1.543341"
         transform="rotate(-66.673564)"
         inkscape:transform-center-y="-4.839388" />
      <path
         style="fill:#917c6f;stroke-width:0.191658;stroke-opacity:0.919355"
         id="path2253-2"
         sodipodi:type="arc"
         sodipodi:cx="40.84013"
         sodipodi:cy="40.16457"
         sodipodi:rx="32.29734"
         sodipodi:ry="31.836142"
         sodipodi:start="1.5448731"
         sodipodi:end="1.5245468"
         sodipodi:arc-type="arc"
         d="M 41.677287,71.990015 A 32.29734,31.836142 0 0 1 8.5583119,41.151485 32.29734,31.836142 0 0 1 39.674889,8.349155 32.29734,31.836142 0 0 1 73.110105,38.854311 32.29734,31.836142 0 0 1 42.333334,71.966668"
         sodipodi:open="true" />
      <g
         id="g5025-0-2"
         transform="matrix(13.004346,-4.6018972,2.1748271,13.054769,-59.324258,-1.5297712)"
         style="display:inline;filter:url(#filter2708-9)">
        <path
           id="rect4569-4-2-8"
           style="fill:#cccccc;fill-opacity:1;stroke-width:0.264999"
           d="M 8.9958333,2.6458333 9.2604167,2.38125 9.525,3.175 V 3.4395833 L 9.2604167,3.7041667 8.9533221,4.3987666 7.9375,3.175 8.4666667,2.9104167 Z"
           sodipodi:nodetypes="ccccccccc" />
        <path
           id="rect4777-1-2-0-0-4"
           style="fill:#4d4d4d;fill-opacity:1;stroke-width:0.264999"
           d="M 8.0917381,3.3013926 7.9375,3.175 8.9958333,2.6458333 9.2604167,2.38125 9.2219971,2.6539526 9.0486324,2.8234823 Z"
           sodipodi:nodetypes="ccccccc" />
        <path
           id="rect4777-1-3-0-6"
           style="fill:#808080;fill-opacity:1;stroke-width:0.264999"
           d="M 9.2604167,3.7041667 8.9533221,4.3987666 8.8531643,4.1538607 9.1284518,3.6481219 9.3616676,3.4172342 9.3589972,3.1778813 9.2219971,2.6539526 9.2604167,2.38125 9.525,3.175 v 0.2645833 z"
           sodipodi:nodetypes="ccccccccccc" />
      </g>
      <g
         id="g5025-0-5"
         transform="matrix(7.1174706,10.794829,-10.586425,7.2575852,55.402316,-64.283815)"
         style="display:inline;filter:url(#filter2708-9)">
        <path
           id="rect4569-4-2-3"
           style="fill:#cccccc;fill-opacity:1;stroke-width:0.264999"
           d="M 8.9958333,2.6458333 9.2604167,2.38125 9.525,3.175 V 3.4395833 L 9.2604167,3.7041667 8.9533221,4.3987666 7.9375,3.175 8.4666667,2.9104167 Z"
           sodipodi:nodetypes="ccccccccc" />
        <path
           id="rect4777-1-2-0-0-7"
           style="fill:#4d4d4d;fill-opacity:1;stroke-width:0.264999"
           d="M 8.0917381,3.3013926 7.9375,3.175 8.9958333,2.6458333 9.2604167,2.38125 9.2219971,2.6539526 9.0486324,2.8234823 Z"
           sodipodi:nodetypes="ccccccc" />
        <path
           id="rect4777-1-3-0-1"
           style="fill:#808080;fill-opacity:1;stroke-width:0.264999"
           d="M 9.2604167,3.7041667 8.9533221,4.3987666 8.8531643,4.1538607 9.1284518,3.6481219 9.3616676,3.4172342 9.3589972,3.1778813 9.2219971,2.6539526 9.2604167,2.38125 9.525,3.175 v 0.2645833 z"
           sodipodi:nodetypes="ccccccccccc" />
      </g>
      <g
         id="g5045-6-4"
         transform="matrix(1.351179,14.000436,-11.174409,2.1767328,108.84189,-65.557275)"
         style="display:inline;filter:url(#filter2708-9)">
        <path
           id="rect4569-45-2-9"
           style="fill:#cccccc;fill-opacity:1;stroke-width:0.264999"
           d="m 4.0708184,8.9065669 0.1647277,0.3368293 0.35469,0.4105957 0.658722,0.4219261 -0.089583,0.11054 -0.6614584,0.132292 -0.79375,0.529167 0.1322916,-1.7197918 z"
           sodipodi:nodetypes="ccccccccc" />
        <path
           id="rect4777-1-14-34-0-9"
           style="fill:#808080;fill-opacity:1;stroke-width:0.264999"
           d="M 3.8364583,9.1281252 4.0708184,8.9065669 4.1972193,9.1146646 3.9881755,9.2754455 3.943272,10.413415 3.7041674,10.847922 Z"
           sodipodi:nodetypes="ccccccc" />
        <path
           id="rect4777-1-2-00-6-9-8-6"
           style="fill:#4d4d4d;fill-opacity:1;stroke-width:0.264999"
           d="m 5.1160569,9.9814708 0.1329012,0.094447 -0.089583,0.11054 -0.6614584,0.132292 -0.79375,0.529167 L 3.943272,10.413415 4.4615287,10.09258 5.0792723,9.9718419 Z"
           sodipodi:nodetypes="ccccccccc" />
      </g>
    </g>
    <g
       id="g2526"
       transform="matrix(0.9463468,0,0,0.96165254,177.8411,-59.841113)">
      <path
         style="fill:#241f1c;stroke-width:0.199073;stroke-opacity:0.919355"
         id="path2253-9"
         sodipodi:type="arc"
         sodipodi:cx="40.029907"
         sodipodi:cy="40.042385"
         sodipodi:rx="34.478218"
         sodipodi:ry="32.174747"
         sodipodi:start="1.5448731"
         sodipodi:end="1.5245468"
         sodipodi:arc-type="arc"
         sodipodi:open="true"
         d="M 40.923594,72.206322 A 34.478218,32.174747 0 0 1 5.5682597,41.039797 34.478218,32.174747 0 0 1 38.785983,7.8885848 34.478218,32.174747 0 0 1 74.478913,38.718191 34.478218,32.174747 0 0 1 41.62394,72.182728" />
      <path
         style="fill:#483e37;stroke-width:0.199073;stroke-opacity:0.919355"
         id="path2253-4-6"
         sodipodi:type="arc"
         sodipodi:cx="40.21666"
         sodipodi:cy="40.216663"
         sodipodi:rx="34.478218"
         sodipodi:ry="32.174747"
         sodipodi:start="3.8904812"
         sodipodi:end="1.5245468"
         sodipodi:arc-type="slice"
         inkscape:transform-center-x="-4.7892364"
         d="M 14.963226,18.311288 A 34.478218,32.174747 0 0 1 56.255377,11.735127 34.478218,32.174747 0 0 1 73.872896,47.200352 34.478218,32.174747 0 0 1 41.810692,72.357006 L 40.21666,40.216663 Z" />
      <path
         style="fill:#6c5d53;stroke-width:0.199119;stroke-opacity:0.919355"
         id="path2253-4-5-6"
         sodipodi:type="arc"
         sodipodi:cx="29.444183"
         sodipodi:cy="47.390175"
         sodipodi:rx="34.366985"
         sodipodi:ry="32.293537"
         sodipodi:start="4.6108978"
         sodipodi:end="1.5245468"
         sodipodi:arc-type="arc"
         inkscape:transform-center-x="-1.2775319"
         sodipodi:open="true"
         transform="matrix(0.97789659,-0.20908911,0.23844427,0.97115618,0,0)"
         inkscape:transform-center-y="1.6582643"
         d="M 25.962222,15.262814 A 34.366985,32.293537 0 0 1 57.6783,28.978342 34.366985,32.293537 0 0 1 60.255032,61.696014 34.366985,32.293537 0 0 1 31.033074,79.64918" />
      <path
         style="fill:#917c6f;stroke-width:0.199311;stroke-opacity:0.919355"
         id="path2253-4-5-1-97"
         sodipodi:type="arc"
         sodipodi:cx="-2.7989442"
         sodipodi:cy="56.999516"
         sodipodi:rx="33.312714"
         sodipodi:ry="33.380013"
         sodipodi:start="5.8819421"
         sodipodi:end="1.5245468"
         sodipodi:arc-type="slice"
         inkscape:transform-center-x="-1.2744347"
         transform="matrix(0.72106963,-0.6928626,0.74096945,0.67153873,0,0)"
         inkscape:transform-center-y="0.059218542"
         d="M 27.867946,43.962514 A 33.312714,33.380013 0 0 1 25.396155,74.777208 33.312714,33.380013 0 0 1 -1.2587962,90.343834 l -1.540148,-33.344318 z" />
      <path
         style="fill:#ac9d93;stroke-width:0.199199;stroke-opacity:0.919355"
         id="path2253-4-5-1-9-7"
         sodipodi:type="arc"
         sodipodi:cx="-22.323975"
         sodipodi:cy="53.444649"
         sodipodi:rx="33.023018"
         sodipodi:ry="34.127335"
         sodipodi:start="0.27879021"
         sodipodi:end="1.5245468"
         sodipodi:arc-type="slice"
         inkscape:transform-center-x="-1.330292"
         transform="matrix(0.41946855,-0.90776987,0.92770506,0.37331397,0,0)"
         inkscape:transform-center-y="-3.8926516"
         d="M 9.4239938,62.836245 A 33.023018,34.127335 0 0 1 -20.79722,87.53549 l -1.526755,-34.090841 z" />
      <path
         style="fill:#917c6f;stroke-width:0.159587;stroke-opacity:0.919355"
         id="path2253-2-1"
         sodipodi:type="arc"
         sodipodi:cx="40.754059"
         sodipodi:cy="40.174763"
         sodipodi:rx="27.838869"
         sodipodi:ry="25.607996"
         sodipodi:start="1.5448731"
         sodipodi:end="1.5245468"
         sodipodi:arc-type="arc"
         sodipodi:open="true"
         d="M 41.475651,65.774155 A 27.838869,25.607996 0 0 1 12.928569,40.968606 27.838869,25.607996 0 0 1 39.749673,14.583439 27.838869,25.607996 0 0 1 68.569341,39.120832 27.838869,25.607996 0 0 1 42.041134,65.755376" />
      <g
         id="g5025-0-2-5"
         transform="matrix(9.3276334,-6.6370533,-7.0259566,-9.0253988,17.719447,131.52737)"
         style="display:inline;filter:url(#filter2708-9-5)">
        <path
           id="rect4569-4-2-8-1"
           style="fill:#cccccc;fill-opacity:1;stroke-width:0.264999"
           d="M 8.9958333,2.6458333 9.2604167,2.38125 9.525,3.175 V 3.4395833 L 9.2604167,3.7041667 8.9533221,4.3987666 7.9375,3.175 8.4666667,2.9104167 Z"
           sodipodi:nodetypes="ccccccccc" />
        <path
           id="rect4777-1-2-0-0-4-3"
           style="fill:#4d4d4d;fill-opacity:1;stroke-width:0.264999"
           d="M 8.0917381,3.3013926 7.9375,3.175 8.9958333,2.6458333 9.2604167,2.38125 9.2219971,2.6539526 9.0486324,2.8234823 Z"
           sodipodi:nodetypes="ccccccc" />
        <path
           id="rect4777-1-3-0-6-9"
           style="fill:#808080;fill-opacity:1;stroke-width:0.264999"
           d="M 9.2604167,3.7041667 8.9533221,4.3987666 8.8531643,4.1538607 9.1284518,3.6481219 9.3616676,3.4172342 9.3589972,3.1778813 9.2219971,2.6539526 9.2604167,2.38125 9.525,3.175 v 0.2645833 z"
           sodipodi:nodetypes="ccccccccccc" />
      </g>
      <g
         id="g5025-0-5-4"
         transform="matrix(-6.7254479,8.2240923,-7.9260492,-7.4140296,127.90363,37.01155)"
         style="display:inline;filter:url(#filter2708-9-5)">
        <path
           id="rect4569-4-2-3-8"
           style="fill:#cccccc;fill-opacity:1;stroke-width:0.264999"
           d="M 8.5582722,3.2384563 8.8228556,2.973873 9.0874389,3.767623 V 4.0322063 L 8.8228556,4.2967897 8.515761,4.9913896 7.4999389,3.767623 8.0291056,3.5030397 Z"
           sodipodi:nodetypes="ccccccccc" />
        <path
           id="rect4777-1-2-0-0-7-7"
           style="fill:#4d4d4d;fill-opacity:1;stroke-width:0.264999"
           d="M 7.654177,3.8940156 7.4999389,3.767623 8.5582722,3.2384563 8.8228556,2.973873 8.784436,3.2465756 8.6110713,3.4161053 Z"
           sodipodi:nodetypes="ccccccc" />
        <path
           id="rect4777-1-3-0-1-6"
           style="fill:#808080;fill-opacity:1;stroke-width:0.264999"
           d="M 8.8228556,4.2967897 8.515761,4.9913896 8.4156032,4.7464837 8.6908907,4.2407449 8.9241065,4.0098572 8.9214361,3.7705043 8.784436,3.2465756 8.8228556,2.973873 9.0874389,3.767623 v 0.2645833 z"
           sodipodi:nodetypes="ccccccccccc" />
      </g>
      <g
         id="g5045-6-4-4"
         transform="matrix(12.64684,3.574714,-3.6912856,11.883616,-9.4384561,-75.858718)"
         style="display:inline;filter:url(#filter2708-9-5)">
        <path
           id="rect4569-45-2-9-7"
           style="fill:#cccccc;fill-opacity:1;stroke-width:0.264999"
           d="m 4.0708184,8.9065669 0.1647277,0.3368293 0.35469,0.4105957 0.658722,0.4219261 -0.089583,0.11054 -0.6614584,0.132292 -0.79375,0.529167 0.1322916,-1.7197918 z"
           sodipodi:nodetypes="ccccccccc" />
        <path
           id="rect4777-1-14-34-0-9-9"
           style="fill:#808080;fill-opacity:1;stroke-width:0.264999"
           d="M 3.8364583,9.1281252 4.0708184,8.9065669 4.1972193,9.1146646 3.9881755,9.2754455 3.943272,10.413415 3.7041674,10.847922 Z"
           sodipodi:nodetypes="ccccccc" />
        <path
           id="rect4777-1-2-00-6-9-8-6-8"
           style="fill:#4d4d4d;fill-opacity:1;stroke-width:0.264999"
           d="m 5.1160569,9.9814708 0.1329012,0.094447 -0.089583,0.11054 -0.6614584,0.132292 -0.79375,0.529167 L 3.943272,10.413415 4.4615287,10.09258 5.0792723,9.9718419 Z"
           sodipodi:nodetypes="ccccccccc" />
      </g>
    </g>
    <g
       id="g2634"
       transform="matrix(1.0463474,0,0,1.0050439,141.96213,-133.64256)">
      <path
         style="fill:#241f1c;stroke-width:0.145402;stroke-opacity:0.919355"
         id="path2253-0"
         sodipodi:type="arc"
         sodipodi:cx="70.530945"
         sodipodi:cy="111.77979"
         sodipodi:rx="24.349827"
         sodipodi:ry="24.304163"
         sodipodi:start="1.5448731"
         sodipodi:end="1.5245468"
         sodipodi:arc-type="arc"
         sodipodi:open="true"
         d="M 71.1621,136.07579 A 24.349827,24.304163 0 0 1 46.192821,112.53322 24.349827,24.304163 0 0 1 69.652438,87.491453 24.349827,24.304163 0 0 1 94.860141,110.77952 24.349827,24.304163 0 0 1 71.656711,136.05797" />
      <path
         style="fill:#483e37;stroke-width:0.145402;stroke-opacity:0.919355"
         id="path2253-4-2"
         sodipodi:type="arc"
         sodipodi:cx="70.662842"
         sodipodi:cy="111.91144"
         sodipodi:rx="24.349827"
         sodipodi:ry="24.304163"
         sodipodi:start="3.8904812"
         sodipodi:end="1.5245468"
         sodipodi:arc-type="slice"
         inkscape:transform-center-x="-3.2877999"
         d="M 52.827908,95.364554 A 24.349827,24.304163 0 0 1 81.989993,90.397053 24.349827,24.304163 0 0 1 94.432154,117.18678 24.349827,24.304163 0 0 1 71.788608,136.18961 L 70.662842,111.91144 Z" />
      <path
         style="fill:#6c5d53;stroke-width:0.145402;stroke-opacity:0.919355"
         id="path2253-4-5-5"
         sodipodi:type="arc"
         sodipodi:cx="43.807369"
         sodipodi:cy="124.57131"
         sodipodi:rx="24.347551"
         sodipodi:ry="24.306444"
         sodipodi:start="4.6108978"
         sodipodi:end="1.5245468"
         sodipodi:arc-type="arc"
         inkscape:transform-center-x="-0.87702039"
         sodipodi:open="true"
         transform="matrix(0.97483275,-0.22293746,0.22373408,0.97465023,0,0)"
         inkscape:transform-center-y="1.2045825"
         d="m 41.340548,100.38994 a 24.347551,24.306444 0 0 1 22.469495,10.3233 24.347551,24.306444 0 0 1 1.825506,24.62568 24.347551,24.306444 0 0 1 -20.702518,13.51284" />
      <path
         style="fill:#917c6f;stroke-width:0.145403;stroke-opacity:0.919355"
         id="path2253-4-5-1-2"
         sodipodi:type="arc"
         sodipodi:cx="-31.171999"
         sodipodi:cy="128.68863"
         sodipodi:rx="24.326338"
         sodipodi:ry="24.327673"
         sodipodi:start="5.8819421"
         sodipodi:end="1.5245468"
         sodipodi:arc-type="slice"
         inkscape:transform-center-x="-0.8748935"
         transform="matrix(0.6973672,-0.71671402,0.7180212,0.69602124,0,0)"
         inkscape:transform-center-y="0.043017347"
         d="m -8.7777525,119.18714 a 24.326338,24.327673 0 0 1 -1.8050045,22.45804 24.326338,24.327673 0 0 1 -19.464561,11.34511 l -1.124681,-24.30166 z" />
      <path
         style="fill:#ac9d93;stroke-width:0.145402;stroke-opacity:0.919355"
         id="path2253-4-5-1-9-1"
         sodipodi:type="arc"
         sodipodi:cx="-74.858444"
         sodipodi:cy="109.25176"
         sodipodi:rx="24.66713"
         sodipodi:ry="24.34267"
         sodipodi:start="0.27879021"
         sodipodi:end="1.5245468"
         sodipodi:arc-type="slice"
         inkscape:transform-center-x="-0.91323829"
         transform="matrix(0.39659626,-0.91799314,0.91853365,0.39534282,0,0)"
         inkscape:transform-center-y="-2.8276715"
         d="m -51.143736,115.95069 a 24.66713,24.34267 0 0 1 -22.574272,17.61771 l -1.140436,-24.31664 z" />
      <path
         style="fill:#917c6f;stroke-width:0.116561;stroke-opacity:0.919355"
         id="path2253-2-3"
         sodipodi:type="arc"
         sodipodi:cx="71.042366"
         sodipodi:cy="111.87978"
         sodipodi:rx="19.660864"
         sodipodi:ry="19.343769"
         sodipodi:start="1.5448731"
         sodipodi:end="1.5245468"
         sodipodi:arc-type="arc"
         sodipodi:open="true"
         d="M 71.551982,131.21705 A 19.660864,19.343769 0 0 1 51.390951,112.47944 19.660864,19.343769 0 0 1 70.333031,92.548608 19.660864,19.343769 0 0 1 90.686572,111.08367 19.660864,19.343769 0 0 1 71.951348,131.20287" />
      <g
         id="g5025-0-2-1"
         transform="matrix(7.1897755,-6.757137,4.9167784,6.3838931,-8.2379229,122.95401)"
         style="display:inline;filter:url(#filter2708-9-4)">
        <path
           id="rect4569-4-2-8-0"
           style="fill:#cccccc;fill-opacity:1;stroke-width:0.264999"
           d="M 8.9958333,2.6458333 9.2604167,2.38125 9.525,3.175 V 3.4395833 L 9.2604167,3.7041667 8.9533221,4.3987666 7.9375,3.175 8.4666667,2.9104167 Z"
           sodipodi:nodetypes="ccccccccc" />
        <path
           id="rect4777-1-2-0-0-4-39"
           style="fill:#4d4d4d;fill-opacity:1;stroke-width:0.264999"
           d="M 8.0917381,3.3013926 7.9375,3.175 8.9958333,2.6458333 9.2604167,2.38125 9.2219971,2.6539526 9.0486324,2.8234823 Z"
           sodipodi:nodetypes="ccccccc" />
        <path
           id="rect4777-1-3-0-6-7"
           style="fill:#808080;fill-opacity:1;stroke-width:0.264999"
           d="M 9.2604167,3.7041667 8.9533221,4.3987666 8.8531643,4.1538607 9.1284518,3.6481219 9.3616676,3.4172342 9.3589972,3.1778813 9.2219971,2.6539526 9.2604167,2.38125 9.525,3.175 v 0.2645833 z"
           sodipodi:nodetypes="ccccccccccc" />
      </g>
      <g
         id="g5025-0-5-45"
         transform="matrix(-2.5584966,7.45068,-7.3680058,-2.5321558,131.82391,76.860867)"
         style="display:inline;filter:url(#filter2708-9-4)">
        <path
           id="rect4569-4-2-3-89"
           style="fill:#cccccc;fill-opacity:1;stroke-width:0.264999"
           d="M 8.9958333,2.6458333 9.2604167,2.38125 9.525,3.175 V 3.4395833 L 9.2604167,3.7041667 8.9533221,4.3987666 7.9375,3.175 8.4666667,2.9104167 Z"
           sodipodi:nodetypes="ccccccccc" />
        <path
           id="rect4777-1-2-0-0-7-79"
           style="fill:#4d4d4d;fill-opacity:1;stroke-width:0.264999"
           d="M 8.0917381,3.3013926 7.9375,3.175 8.9958333,2.6458333 9.2604167,2.38125 9.2219971,2.6539526 9.0486324,2.8234823 Z"
           sodipodi:nodetypes="ccccccc" />
        <path
           id="rect4777-1-3-0-1-8"
           style="fill:#808080;fill-opacity:1;stroke-width:0.264999"
           d="M 9.2604167,3.7041667 8.9533221,4.3987666 8.8531643,4.1538607 9.1284518,3.6481219 9.3616676,3.4172342 9.3589972,3.1778813 9.2219971,2.6539526 9.2604167,2.38125 9.525,3.175 v 0.2645833 z"
           sodipodi:nodetypes="ccccccccccc" />
      </g>
      <g
         id="g5045-6-4-6"
         transform="matrix(5.7683438,6.2496837,-4.6063464,5.2294993,66.470019,37.220205)"
         style="display:inline;filter:url(#filter2708-9-4)">
        <path
           id="rect4569-45-2-9-4"
           style="fill:#cccccc;fill-opacity:1;stroke-width:0.264999"
           d="m 4.0708184,8.9065669 0.1647277,0.3368293 0.35469,0.4105957 0.658722,0.4219261 -0.089583,0.11054 -0.6614584,0.132292 -0.79375,0.529167 0.1322916,-1.7197918 z"
           sodipodi:nodetypes="ccccccccc" />
        <path
           id="rect4777-1-14-34-0-9-7"
           style="fill:#808080;fill-opacity:1;stroke-width:0.264999"
           d="M 3.8364583,9.1281252 4.0708184,8.9065669 4.1972193,9.1146646 3.9881755,9.2754455 3.943272,10.413415 3.7041674,10.847922 Z"
           sodipodi:nodetypes="ccccccc" />
        <path
           id="rect4777-1-2-00-6-9-8-6-6"
           style="fill:#4d4d4d;fill-opacity:1;stroke-width:0.264999"
           d="m 5.1160569,9.9814708 0.1329012,0.094447 -0.089583,0.11054 -0.6614584,0.132292 -0.79375,0.529167 L 3.943272,10.413415 4.4615287,10.09258 5.0792723,9.9718419 Z"
           sodipodi:nodetypes="ccccccccc" />
      </g>
    </g>
    <path
       id="path2694"
       style="fill:#f2f2f2;stroke-width:0.250393;stroke-opacity:0.919355;image-rendering:auto"
       d="m 215.92895,-35.867053 a 15,15 0 0 0 -10.43192,4.277775 15,15 0 0 0 -0.24701,21.197155 l 0.0589,0.05994 a 15,15 0 0 0 21.19767,0.157618 15,15 0 0 0 0.18759,-21.197155 15,15 0 0 0 -10.76524,-4.495333 z m -0.0289,2.000395 a 13,13 0 0 1 9.36636,3.895369 13,13 0 0 1 -0.16227,18.370972 13,13 0 0 1 -18.37149,-0.136426 l -0.0512,-0.05219 a 13,13 0 0 1 0.21394,-18.370454 13,13 0 0 1 9.00462,-3.707267 z" />
    <path
       style="fill:#ff6600;fill-opacity:1;stroke-width:0.26502;stroke-opacity:0.919355"
       id="path4310-9"
       sodipodi:type="arc"
       sodipodi:cx="320.31781"
       sodipodi:cy="63.33007"
       sodipodi:rx="12.7"
       sodipodi:ry="12.702136"
       sodipodi:start="1.544873"
       sodipodi:end="1.5245468"
       sodipodi:open="true"
       sodipodi:arc-type="arc"
       d="m 320.647,76.027939 a 12.7,12.702136 0 0 1 -13.02309,-12.304103 12.7,12.702136 0 0 1 12.2357,-13.087632 12.7,12.702136 0 0 1 13.14744,12.171093 12.7,12.702136 0 0 1 -12.10208,13.211327" />
    <path
       style="fill:#ff9955;fill-opacity:1;stroke-width:0.19875;stroke-opacity:0.919355"
       id="path4312-2"
       sodipodi:type="arc"
       sodipodi:cx="320.1532"
       sodipodi:cy="63.33007"
       sodipodi:rx="6.3499999"
       sodipodi:ry="6.3499999"
       sodipodi:start="1.544873"
       sodipodi:end="1.5245468"
       sodipodi:open="true"
       sodipodi:arc-type="arc"
       d="m 320.31779,69.677937 a 6.3499999,6.3499999 0 0 1 -6.51154,-6.151017 6.3499999,6.3499999 0 0 1 6.11785,-6.542715 6.3499999,6.3499999 0 0 1 6.57372,6.084523 6.3499999,6.3499999 0 0 1 -6.05104,6.604552" />
    <path
       id="rect2755"
       style="fill:#000000;fill-opacity:1;stroke-width:0.264999;stroke-opacity:0.919355"
       d="m -148.16667,-46.566667 h 2.11667 124.883333 c -93.133333,0 -105.833333,127.000003 0,127.000003 H -148.16667 Z"
       sodipodi:nodetypes="cccccc" />
    <path
       style="fill:#917c6f;stroke-width:0.149425;stroke-opacity:0.919355"
       id="path2253-0-8"
       sodipodi:type="arc"
       sodipodi:cx="63.5"
       sodipodi:cy="63.5"
       sodipodi:rx="25"
       sodipodi:ry="25"
       sodipodi:start="1.5448731"
       sodipodi:end="1.5245468"
       sodipodi:arc-type="arc"
       sodipodi:open="true"
       d="M 64.148008,88.4916 A 25,25 0 0 1 38.512015,64.274996 25,25 0 0 1 62.598036,38.516276 25,25 0 0 1 88.478818,62.471092 25,25 0 0 1 64.655826,88.473267" />
    <path
       style="fill:#9d8a7f;fill-opacity:1;stroke-width:0.119539;stroke-opacity:0.919355"
       id="path2253-2-3-8"
       sodipodi:type="arc"
       sodipodi:cx="63.5"
       sodipodi:cy="63.5"
       sodipodi:rx="20"
       sodipodi:ry="20"
       sodipodi:start="1.5448731"
       sodipodi:end="1.5245468"
       sodipodi:arc-type="arc"
       sodipodi:open="true"
       d="M 64.018406,83.49328 A 20,20 0 0 1 43.509612,64.119997 20,20 0 0 1 62.778429,43.513021 20,20 0 0 1 83.483054,62.676874 20,20 0 0 1 64.424661,83.478614" />
    <g
       id="g5025-0-2-1-2"
       transform="matrix(1.9978052,-11.244822,9.0143158,2.1514726,1.3394544,132.2698)"
       style="display:inline;filter:url(#filter2708-9-4-8)">
      <path
         id="rect4569-4-2-8-0-1"
         style="fill:#cccccc;fill-opacity:1;stroke-width:0.264999"
         d="M 8.9958333,2.6458333 9.2604167,2.38125 9.525,3.175 V 3.4395833 L 9.2604167,3.7041667 8.9533221,4.3987666 7.9375,3.175 8.4666667,2.9104167 Z"
         sodipodi:nodetypes="ccccccccc" />
      <path
         id="rect4777-1-2-0-0-4-39-5"
         style="fill:#4d4d4d;fill-opacity:1;stroke-width:0.264999"
         d="M 8.0917381,3.3013926 7.9375,3.175 8.9958333,2.6458333 9.2604167,2.38125 9.2219971,2.6539526 9.0486324,2.8234823 Z"
         sodipodi:nodetypes="ccccccc" />
      <path
         id="rect4777-1-3-0-6-7-4"
         style="fill:#808080;fill-opacity:1;stroke-width:0.264999"
         d="M 9.2604167,3.7041667 8.9533221,4.3987666 8.8531643,4.1538607 9.1284518,3.6481219 9.3616676,3.4172342 9.3589972,3.1778813 9.2219971,2.6539526 9.2604167,2.38125 9.525,3.175 v 0.2645833 z"
         sodipodi:nodetypes="ccccccccccc" />
    </g>
    <g
       id="g5025-0-5-45-2"
       transform="matrix(5.7327663,8.6483781,-8.6831588,6.0671908,69.191104,-26.137625)"
       style="display:inline;filter:url(#filter2708-9-4-8)">
      <path
         id="rect4569-4-2-3-89-9"
         style="fill:#cccccc;fill-opacity:1;stroke-width:0.264999"
         d="M 8.9958333,2.6458333 9.2604167,2.38125 9.525,3.175 V 3.4395833 L 9.2604167,3.7041667 8.9533221,4.3987666 7.9375,3.175 8.4666667,2.9104167 Z"
         sodipodi:nodetypes="ccccccccc" />
      <path
         id="rect4777-1-2-0-0-7-79-1"
         style="fill:#4d4d4d;fill-opacity:1;stroke-width:0.264999"
         d="M 8.0917381,3.3013926 7.9375,3.175 8.9958333,2.6458333 9.2604167,2.38125 9.2219971,2.6539526 9.0486324,2.8234823 Z"
         sodipodi:nodetypes="ccccccc" />
      <path
         id="rect4777-1-3-0-1-8-4"
         style="fill:#808080;fill-opacity:1;stroke-width:0.264999"
         d="M 9.2604167,3.7041667 8.9533221,4.3987666 8.8531643,4.1538607 9.1284518,3.6481219 9.3616676,3.4172342 9.3589972,3.1778813 9.2219971,2.6539526 9.2604167,2.38125 9.525,3.175 v 0.2645833 z"
         sodipodi:nodetypes="ccccccccccc" />
    </g>
    <g
       id="g5045-6-4-6-7"
       transform="matrix(12.017799,-2.6020534,-0.29773428,9.9906109,-0.71747345,-1.856588)"
       style="display:inline;filter:url(#filter2708-9-4-8)">
      <path
         id="rect4569-45-2-9-4-7"
         style="fill:#cccccc;fill-opacity:1;stroke-width:0.264999"
         d="m 4.0708184,8.9065669 0.1647277,0.3368293 0.35469,0.4105957 0.658722,0.4219261 -0.089583,0.11054 -0.6614584,0.132292 -0.79375,0.529167 0.1322916,-1.7197918 z"
         sodipodi:nodetypes="ccccccccc" />
      <path
         id="rect4777-1-14-34-0-9-7-7"
         style="fill:#808080;fill-opacity:1;stroke-width:0.264999"
         d="M 3.8364583,9.1281252 4.0708184,8.9065669 4.1972193,9.1146646 3.9881755,9.2754455 3.943272,10.413415 3.7041674,10.847922 Z"
         sodipodi:nodetypes="ccccccc" />
      <path
         id="rect4777-1-2-00-6-9-8-6-6-3"
         style="fill:#4d4d4d;fill-opacity:1;stroke-width:0.264999"
         d="m 5.1160569,9.9814708 0.1329012,0.094447 -0.089583,0.11054 -0.6614584,0.132292 -0.79375,0.529167 L 3.943272,10.413415 4.4615287,10.09258 5.0792723,9.9718419 Z"
         sodipodi:nodetypes="ccccccccc" />
    </g>
  </g>
  <g
     inkscape:groupmode="layer"
     id="layer8"
     inkscape:label="Base"
     style="display:inline">
    <path
       id="path4310"
       style="fill:#b3b3b3;fill-opacity:1;stroke-width:0.331249;stroke-opacity:0.919355"
       d="m 63.505175,47.625023 a 15.875132,15.875003 0 0 0 -0.578134,0.01029 15.875132,15.875003 0 0 0 -15.294413,16.356719 15.875132,15.875003 0 0 0 16.278846,15.377616 l 0.322339,-0.01126 A 15.875132,15.875003 0 0 0 79.361566,62.84742 15.875132,15.875003 0 0 0 63.505175,47.625451 Z m -0.224787,7.938749 a 7.9375664,7.9361672 0 0 1 7.944669,7.609367 7.9375664,7.9361672 0 0 1 -7.563551,8.254563 l -0.161495,0.0062 a 7.9375664,7.9361672 0 0 1 -8.139749,-7.687521 7.9375664,7.9361672 0 0 1 7.64752,-8.177066 7.9375664,7.9361672 0 0 1 0.272606,-0.0051 z" />
    <path
       id="path4310-99"
       style="fill:#cccccc;fill-opacity:1;stroke-width:0.27604;stroke-opacity:0.919355"
       d="m 63.504311,50.270841 a 13.229276,13.229169 0 0 0 -0.48177,0.0086 13.229276,13.229169 0 0 0 -12.74535,13.630598 13.229276,13.229169 0 0 0 13.56571,12.814679 l 0.26861,-0.0094 A 13.229276,13.229169 0 0 0 76.717971,62.956171 13.229276,13.229169 0 0 0 63.504311,50.271197 Z m -0.18732,6.615624 a 6.6146385,6.6134725 0 0 1 6.62056,6.341139 6.6146385,6.6134725 0 0 1 -6.30296,6.878802 l -0.13458,0.0052 a 6.6146385,6.6134725 0 0 1 -6.78312,-6.406267 6.6146385,6.6134725 0 0 1 6.37293,-6.814221 6.6146385,6.6134725 0 0 1 0.22717,-0.0042 z" />
    <path
       id="path4310-7"
       style="fill:#ececec;fill-opacity:1;stroke-width:0.220851;stroke-opacity:0.919355"
       d="m 63.50344,52.914812 a 10.583417,10.585197 0 0 0 -0.385413,0.0069 10.583417,10.585197 0 0 0 -10.196275,10.906395 10.583417,10.585197 0 0 0 10.852564,10.253549 l 0.214896,-0.0078 A 10.583417,10.585197 0 0 0 74.074376,63.064559 10.583417,10.585197 0 0 0 63.50344,52.914789 Z m -0.149862,5.293432 a 5.2917089,5.2917089 0 0 1 5.296442,5.073802 5.2917089,5.2917089 0 0 1 -5.042358,5.504015 l -0.107627,0.0045 a 5.2917089,5.2917089 0 0 1 -5.426488,-5.125915 5.2917089,5.2917089 0 0 1 5.098349,-5.452339 5.2917089,5.2917089 0 0 1 0.181726,-0.0033 z" />
  </g>
</svg>
