<?xml version="1.0" encoding="UTF-8" standalone="no"?>
<svg
   xmlns:dc="http://purl.org/dc/elements/1.1/"
   xmlns:cc="http://creativecommons.org/ns#"
   xmlns:rdf="http://www.w3.org/1999/02/22-rdf-syntax-ns#"
   xmlns:svg="http://www.w3.org/2000/svg"
   xmlns="http://www.w3.org/2000/svg"
   xmlns:sodipodi="http://sodipodi.sourceforge.net/DTD/sodipodi-0.dtd"
   xmlns:inkscape="http://www.inkscape.org/namespaces/inkscape"
   width="480"
   height="480"
   viewBox="0 0 127 127"
   version="1.1"
   id="svg917"
   inkscape:version="1.0.1 (3bc2e813f5, 2020-09-07)"
   sodipodi:docname="path_decorations.svg">
  <defs
     id="defs911" />
  <sodipodi:namedview
     id="base"
     pagecolor="#ffffff"
     bordercolor="#666666"
     borderopacity="1.0"
     inkscape:pageopacity="0.0"
     inkscape:pageshadow="2"
     inkscape:zoom="1.4"
     inkscape:cx="158.38239"
     inkscape:cy="241.3221"
     inkscape:document-units="mm"
     inkscape:current-layer="layer1"
     inkscape:document-rotation="0"
     showgrid="true"
     units="px"
     objecttolerance="10000"
     guidetolerance="10000"
     inkscape:pagecheckerboard="true"
     inkscape:window-width="1920"
     inkscape:window-height="1002"
     inkscape:window-x="-8"
     inkscape:window-y="-8"
     inkscape:window-maximized="1">
    <inkscape:grid
       type="xygrid"
       id="grid919"
       empspacing="8"
       dotted="false" />
  </sodipodi:namedview>
  <metadata
     id="metadata914">
    <rdf:RDF>
      <cc:Work
         rdf:about="">
        <dc:format>image/svg+xml</dc:format>
        <dc:type
           rdf:resource="http://purl.org/dc/dcmitype/StillImage" />
        <dc:title></dc:title>
      </cc:Work>
    </rdf:RDF>
  </metadata>
  <g
     inkscape:label="Layer 1"
     inkscape:groupmode="layer"
     id="layer1">
    <path
       id="rect14"
       style="display:inline;fill:#28170b;stroke-width:2.64583"
       d="M 0,2.64584 10.58333,0 21.166673,5.29167 13.22917,18.52084 2.64583,15.87501 Z"
       sodipodi:nodetypes="cccccc" />
    <path
       id="rect26"
       style="display:inline;fill:#d38d5f;stroke-width:2.64583"
       d="M 2.64583,2.64584 10.58333,1e-5 21.166673,5.29168 13.22917,18.52084 5.29167,15.87501 Z"
       sodipodi:nodetypes="cccccc" />
    <path
       id="rect26-8"
       style="display:inline;fill:#502d16;stroke-width:2.64583"
       d="M 2.64583,2.64584 10.58333,0 7.9375001,5.29167 l 1.32292,6.61458 3.9687499,6.61459 -7.9375,-2.64583 z"
       sodipodi:nodetypes="ccccccc" />
    <path
       id="rect26-9"
       style="display:inline;fill:#d38d5f;stroke-width:2.64583"
       d="m 5.29166,23.8125 13.229173,-5.29166 5.29166,13.22917 -7.937503,13.229173 -7.9374999,-5.29168 z"
       sodipodi:nodetypes="cccccc" />
    <path
       id="rect14-3-6"
       style="display:inline;fill:#28170b;stroke-width:2.64583"
       d="M 21.166663,2.64583 34.395833,0 v 5.29167 l 5.29167,10.58334 -15.875,-5.29167 z"
       sodipodi:nodetypes="cccccc" />
    <path
       id="rect26-9-1"
       style="display:inline;fill:#d38d5f;stroke-width:2.64583"
       d="M 26.458333,2.64584 34.395833,1e-5 v 5.29166 l 5.29167,10.58335 -10.58334,-5.29168 z"
       sodipodi:nodetypes="cccccc" />
    <path
       id="rect26-8-3-0"
       style="display:inline;fill:#502d16;stroke-width:2.64583"
       d="M 23.812503,2.64584 34.395833,1e-5 c -2.64583,0.88190001 -5.29167,1.76388 -7.9375,2.64583 l 2.64583,7.9375 10.58334,5.29168 -13.22916,-5.29168 z"
       sodipodi:nodetypes="ccccccc" />
    <path
       id="rect14-39"
       style="display:inline;fill:#28170b;stroke-width:2.64583"
       d="m 0,50.270843 10.58333,-5.29167 5.29167,5.29167 -2.64583,13.229171 -10.58334,-2.645841 v 0 z"
       sodipodi:nodetypes="ccccccc" />
    <path
       id="rect26-0"
       style="display:inline;fill:#d38d5f;stroke-width:2.64583"
       d="m 2.64583,50.270843 7.9375,-5.29167 5.29167,2.64584 2.645833,7.9375 -5.291663,7.937501 -7.9375,-5.291671 z"
       sodipodi:nodetypes="ccccccc" />
    <path
       id="rect26-8-6"
       style="display:inline;fill:#502d16;stroke-width:2.64583"
       d="m 2.64583,50.270843 7.9375,-5.29167 -2.6458299,5.29166 1.32292,6.61458 3.9687499,6.614591 -7.9375,-5.291661 z"
       sodipodi:nodetypes="ccccccc" />
    <path
       id="rect14-3-8"
       style="display:inline;fill:#28170b;stroke-width:2.64583"
       d="M 0,71.437514 5.29167,66.145844 15.875,63.500014 13.22917,87.312518 2.64584,82.020848 0,76.729174 Z"
       sodipodi:nodetypes="ccccccc" />
    <path
       id="rect14-3-6-6"
       style="display:inline;fill:#28170b;stroke-width:2.64583"
       d="m 23.812503,37.04168 10.58333,-2.64584 v 5.291673 l 5.29167,10.58333 -15.875,-5.29167 z"
       sodipodi:nodetypes="cccccc" />
    <path
       id="rect26-9-1-9"
       style="display:inline;fill:#d38d5f;stroke-width:2.64583"
       d="m 26.458333,37.04167 7.9375,-2.64582 v 5.291663 l 5.29167,10.58334 -10.58334,-5.29168 z"
       sodipodi:nodetypes="cccccc" />
    <path
       id="rect26-8-3-0-5"
       style="display:inline;fill:#502d16;stroke-width:2.64583"
       d="m 23.812503,37.04167 10.58333,-2.64583 c -2.64583,0.8819 -5.29167,1.76389 -7.9375,2.64583 l 2.64583,7.937503 10.58334,5.29168 -13.22916,-5.29168 z"
       sodipodi:nodetypes="ccccccc" />
    <path
       id="rect14-36-0"
       style="display:inline;fill:#28170b;stroke-width:2.64583"
       d="m 34.395833,52.916673 7.9375,-2.64583 v 2.64583 5.29167 l -10.58333,-2.64583 v 0 z"
       sodipodi:nodetypes="ccccccc" />
    <path
       id="rect26-7-2"
       style="display:inline;fill:#d38d5f;stroke-width:2.64583"
       d="m 37.041673,52.916673 5.29166,-2.64583 v 2.64583 5.29167 l -5.29166,-2.64583 z"
       sodipodi:nodetypes="cccccc" />
    <path
       id="rect26-8-8-6"
       style="display:inline;fill:#502d16;stroke-width:2.64583"
       d="m 34.395833,52.916673 7.9375,-2.64583 -5.29166,2.64583 v 2.64584 l 5.29166,2.64583 -7.9375,-2.64583 z"
       sodipodi:nodetypes="ccccccc" />
    <path
       id="rect26-9-3-4"
       style="display:inline;fill:#d38d5f;stroke-width:2.64583"
       d="m 5.29167,68.791674 10.58333,-5.29166 5.291673,2.64583 v 5.29167 7.9375 l -2.64583,5.291664 -5.291673,2.64585 -7.9375,-5.29168 z"
       sodipodi:nodetypes="ccccccccc" />
    <path
       id="rect26-8-3-3-8"
       style="display:inline;fill:#502d16;stroke-width:2.64583"
       d="m 7.9375001,66.145844 7.9374999,-2.64583 -7.9374999,5.29166 -2.6458301,5.29167 2.6458301,7.937504 5.2916699,5.29168 -7.9375,-5.29168 -2.64583,-5.291674 v -5.29166 l 2.64583,-2.64584 z"
       sodipodi:nodetypes="ccccccccccc" />
    <path
       id="rect14-3-6-0-5"
       style="display:inline;fill:#28170b;stroke-width:2.64583"
       d="m 23.812503,37.04168 10.58334,-2.64584 v 5.291673 l 5.29167,10.58333 -15.875,-5.29166 z"
       sodipodi:nodetypes="cccccc" />
    <path
       id="rect26-9-1-4-3"
       style="display:inline;fill:#d38d5f;stroke-width:2.64583"
       d="m 29.104173,37.04168 5.29167,-2.64583 2.64583,2.64583 2.64584,13.229183 -10.58334,-5.29168 z"
       sodipodi:nodetypes="cccccc" />
    <path
       id="rect26-8-3-0-0-2"
       style="display:inline;fill:#502d16;stroke-width:2.64583"
       d="m 26.458333,37.04167 7.93751,-2.64582 -5.29167,2.64583 v 7.937503 l 10.58334,5.29168 -13.22916,-5.29168 z"
       sodipodi:nodetypes="ccccccc" />
    <path
       id="rect14-36-5-4"
       style="display:inline;fill:#28170b;stroke-width:2.64583"
       d="m 21.166663,52.916673 10.58334,-2.64583 -10e-6,2.64583 -2.64582,7.9375 -7.9375,-5.29166 v 0 z"
       sodipodi:nodetypes="ccccccc" />
    <path
       id="rect26-7-3-9"
       style="display:inline;fill:#d38d5f;stroke-width:2.64583"
       d="m 26.458333,52.916673 5.29167,-2.64583 -10e-6,2.64583 v 2.64584 l -2.64582,5.29166 -2.64584,-5.29166 z"
       sodipodi:nodetypes="ccccccc" />
    <path
       id="rect26-8-8-8-5"
       style="display:inline;fill:#502d16;stroke-width:2.64583"
       d="m 23.812493,52.916673 7.93751,-2.64583 -5.29167,2.64583 v 2.64584 l 2.64584,5.29166 -5.29168,-5.29166 z"
       sodipodi:nodetypes="ccccccc" />
    <path
       id="rect14-36"
       style="display:inline;fill:#28170b;stroke-width:2.64583"
       d="m 23.812503,26.45834 10.58333,-2.64583 2.64584,2.64583 -2.64584,5.29167 -5.29166,2.64583 -2.64584,-2.64583 z"
       sodipodi:nodetypes="ccccccc" />
    <path
       id="rect26-7"
       style="display:inline;fill:#d38d5f;stroke-width:2.64583"
       d="m 26.458333,26.45834 7.9375,-2.64583 2.64584,2.64583 -2.64584,5.29167 h -5.29166 z"
       sodipodi:nodetypes="cccccc" />
    <path
       id="rect26-8-8"
       style="display:inline;fill:#502d16;stroke-width:2.64583"
       d="m 26.458333,26.45834 7.9375,-2.64583 -5.29166,2.64583 v 2.64583 l 5.29166,2.64584 h -5.29166 z"
       sodipodi:nodetypes="ccccccc" />
    <path
       id="rect14-3-4"
       style="display:inline;fill:#28170b;stroke-width:2.64583"
       d="M 5.29167,21.16667 18.520833,18.52085 23.812503,31.75001 15.875,44.979183 0,39.687513 2.64583,23.81251 Z"
       sodipodi:nodetypes="ccccccc" />
    <path
       id="rect26-9-3"
       style="display:inline;fill:#d38d5f;stroke-width:2.64583"
       d="M 5.29167,23.81251 18.520843,18.52085 23.812503,31.75001 15.875,44.979193 7.9375001,39.687513 Z"
       sodipodi:nodetypes="cccccc" />
    <path
       id="rect26-8-3-3"
       style="display:inline;fill:#502d16;stroke-width:2.64583"
       d="M 5.29167,23.81251 18.520833,18.52085 10.58333,23.81251 7.9375001,31.75001 10.58333,39.687513 15.875,44.979193 5.29167,39.687513 2.64583,34.39584 Z"
       sodipodi:nodetypes="ccccccccc" />
    <path
       id="rect14-3-6-0"
       style="display:inline;fill:#28170b;stroke-width:2.64583"
       d="M 21.166673,2.64584 34.395843,1e-5 v 5.29167 l 5.29167,10.58333 -15.875,-5.29167 z"
       sodipodi:nodetypes="cccccc" />
    <path
       id="rect26-9-1-4"
       style="display:inline;fill:#d38d5f;stroke-width:2.64583"
       d="M 26.458343,2.64584 34.395843,2e-5 v 5.29166 l 5.29167,10.58334 -10.58334,-5.29168 z"
       sodipodi:nodetypes="cccccc" />
    <path
       id="rect26-8-3-0-0"
       style="display:inline;fill:#502d16;stroke-width:2.64583"
       d="M 23.812513,2.64584 34.395843,2e-5 c -2.64583,0.88190001 -5.29167,1.76388 -7.9375,2.64582 l 2.64583,7.9375 10.58334,5.29168 -13.22916,-5.29168 z"
       sodipodi:nodetypes="ccccccc" />
    <path
       id="rect14-36-5"
       style="display:inline;fill:#28170b;stroke-width:2.64583"
       d="m 23.812503,18.52084 7.9375,-2.64583 2.64583,2.64583 -2.64583,5.29167 h -7.9375 v 0 z"
       sodipodi:nodetypes="ccccccc" />
    <path
       id="rect26-7-3"
       style="display:inline;fill:#d38d5f;stroke-width:2.64583"
       d="m 29.104173,18.52084 2.64583,-2.64583 2.64583,2.64583 v 2.64583 l -2.64583,2.64584 -2.64583,-2.64584 z"
       sodipodi:nodetypes="ccccccc" />
    <path
       id="rect26-8-8-8"
       style="display:inline;fill:#502d16;stroke-width:2.64583"
       d="m 26.458333,18.52084 5.29167,-2.64583 -2.64583,2.64583 v 2.64583 l 2.64583,2.64584 -5.29167,-2.64584 z"
       sodipodi:nodetypes="ccccccc" />
  </g>
</svg>
